<svg id="Layer_1" enable-background="new 0 0 512 512" height="512" viewBox="0 0 512 512" width="512" xmlns="http://www.w3.org/2000/svg"><g><path d="m478.5 68h-445c-14.36 0-26 11.64-26 26v298c0 14.36 11.64 26 26 26h445c14.36 0 26-11.64 26-26v-298c0-14.36-11.64-26-26-26zm-382.5 73.5c-11.05 0-20-8.95-20-20s8.95-20 20-20 20 8.95 20 20-8.95 20-20 20zm80 0c-11.05 0-20-8.95-20-20s8.95-20 20-20 20 8.95 20 20-8.95 20-20 20zm80 0c-11.05 0-20-8.95-20-20s8.95-20 20-20 20 8.95 20 20-8.95 20-20 20zm80 0c-11.05 0-20-8.95-20-20s8.95-20 20-20 20 8.95 20 20-8.95 20-20 20zm80 0c-11.05 0-20-8.95-20-20s8.95-20 20-20 20 8.95 20 20-8.95 20-20 20z" fill="#42a5f5"/><g><path d="m478.5 68h-30c14.36 0 26 11.64 26 26v298c0 14.36-11.64 26-26 26h30c14.36 0 26-11.64 26-26v-298c0-14.36-11.64-26-26-26z" fill="#2196f3"/></g><path d="m306 306.637v97.148c0 25.757-20.953 46.637-46.8 46.637h-88.77c-2.246 0-4.204 1.451-4.934 3.567-10.959 31.764-43.13 34.359-56.646 33.979-2.47-.069-3.92-2.778-2.637-4.882 5.238-8.597 6.11-20.645 6.134-27.449.01-2.871-2.319-5.215-5.2-5.215h-14.347c-25.847 0-46.8-20.88-46.8-46.637v-97.148c0-25.757 20.953-46.637 46.8-46.637h166.4c25.847 0 46.8 20.88 46.8 46.637z" fill="#f1f1f1"/><g fill="#e2e2e2"><path d="m135.496 453.989c-5.854 16.967-17.76 25.608-29.643 29.922-.537 1.925.841 3.997 2.996 4.057 13.517.38 45.688-2.215 56.646-33.979.73-2.117 2.688-3.567 4.934-3.567h-30c-2.245 0-4.203 1.451-4.933 3.567z"/><path d="m259.2 260h-30c25.847 0 46.8 20.88 46.8 46.637v97.148c0 25.757-20.953 46.637-46.8 46.637h30c25.847 0 46.8-20.88 46.8-46.637v-97.148c0-25.757-20.953-46.637-46.8-46.637z"/></g><path d="m371.311 339.273h30v50h-30z" fill="#d0d0d0" transform="matrix(.707 -.707 .707 .707 -144.432 379.857)"/><path d="m491.67 469.632c-5.858 5.858-15.355 5.858-21.213 0l-77.075-77.075 21.213-21.213 77.075 77.075c5.858 5.858 5.858 15.355 0 21.213z" fill="#ef483c"/><circle cx="302.384" cy="280.346" fill="#497285" r="104"/><path d="m375.923 206.807c-24.133-24.133-57.175-33.925-88.539-29.379 21.42 3.105 42.058 12.897 58.539 29.379 40.615 40.615 40.615 106.464 0 147.078-16.481 16.482-37.119 26.274-58.539 29.379 31.364 4.546 64.406-5.246 88.539-29.379 40.615-40.615 40.615-106.464 0-147.078z" fill="#426778"/><path d="m302.384 354.345c-19.767 0-38.35-7.697-52.326-21.674-28.852-28.853-28.852-75.799 0-104.652 13.977-13.976 32.56-21.673 52.326-21.673s38.35 7.697 52.326 21.674c28.852 28.853 28.852 75.799 0 104.652-13.976 13.977-32.559 21.673-52.326 21.673z" fill="#b9f5ff"/><path d="m354.71 228.02c-13.977-13.977-32.56-21.674-52.326-21.674-5.099 0-10.117.522-15 1.522 14.045 2.877 26.955 9.781 37.326 20.152 28.852 28.853 28.852 75.799 0 104.652-10.371 10.371-23.281 17.275-37.326 20.151 4.883 1 9.901 1.522 15 1.522 19.767 0 38.35-7.697 52.326-21.673 28.852-28.853 28.852-75.8 0-104.652z" fill="#8aeeff"/><g><path d="m504.5 344.556c-4.143 0-7.5 3.358-7.5 7.5v39.942c0 10.201-8.299 18.5-18.5 18.5h-14.142l-44.371-44.371c-.029-.03-.055-.063-.084-.093l-24.366-24.358c11.936-18.048 18.348-39.196 18.348-61.331 0-29.782-11.598-57.783-32.657-78.842-43.473-43.473-114.209-43.474-157.686 0-14.609 14.609-24.301 32.299-29.091 50.996h-101.651c-29.941 0-54.3 24.287-54.3 54.14v97.15c0 2.273.158 4.509.432 6.71h-5.432c-10.201 0-18.5-8.299-18.5-18.5v-232.499c0-4.142-3.357-7.5-7.5-7.5s-7.5 3.358-7.5 7.5v232.499c0 18.472 15.028 33.5 33.5 33.5h9.574c8.41 19.066 27.528 32.419 49.726 32.419h12.006c-.203 6.004-1.197 15.026-5 21.266-1.981 3.251-2.084 7.348-.269 10.693 1.813 3.338 5.3 5.479 9.102 5.588.802.022 1.642.035 2.519.035 8.002 0 18.982-1.066 29.834-5.535 14.785-6.089 25.497-17.149 31.065-32.047h19.901c4.143 0 7.5-3.358 7.5-7.5s-3.357-7.5-7.5-7.5h-21.528c-5.412 0-10.243 3.467-12.02 8.624-3.601 10.435-13.854 27.325-42.594 28.853 3.203-8.38 4.003-17.709 4.033-24.729.013-3.399-1.304-6.6-3.705-9.011-2.401-2.41-5.596-3.737-8.994-3.737h-14.35c-21.67 0-39.3-17.553-39.3-39.129v-97.15c0-21.581 17.63-39.14 39.3-39.14h98.877c-1.7 14.78-.456 29.837 3.732 44.211h-90.467c-4.143 0-7.5 3.358-7.5 7.5s3.357 7.5 7.5 7.5h96.04c3.347 7.34 7.532 14.387 12.552 21h-14.679c-4.143 0-7.5 3.358-7.5 7.5s3.357 7.5 7.5 7.5h28.381c20.205 18.454 45.608 28.121 71.265 29.008v12.072c0 21.576-17.63 39.129-39.3 39.129h-34.777c-4.143 0-7.5 3.358-7.5 7.5s3.357 7.5 7.5 7.5h34.776c22.198 0 41.316-13.353 49.726-32.419h106.792l49.435 49.435c4.25 4.25 9.9 6.59 15.91 6.59s11.66-2.341 15.91-6.59 6.59-9.899 6.59-15.91c0-6.01-2.341-11.66-6.59-15.91l-17.637-17.637c18.086-.448 32.664-15.288 32.664-33.48v-39.942c0-4.142-3.357-7.5-7.5-7.5zm-100.508 26.783-10.611 10.612-17.639-17.645c1.87-1.636 3.702-3.337 5.484-5.119 1.778-1.778 3.483-3.609 5.125-5.483zm-169.844-22.759c-37.626-37.625-37.626-98.846 0-136.471 18.814-18.814 43.521-28.219 68.235-28.219 24.709 0 49.426 9.409 68.235 28.219 18.228 18.227 28.265 42.459 28.265 68.235 0 20.924-6.615 40.831-18.855 57.334-.184.218-.358.443-.513.676-2.704 3.579-5.669 6.999-8.897 10.226-37.624 37.624-98.845 37.625-136.47 0zm78.92 61.918c.274-2.201.432-4.437.432-6.71v-12.551c17.615-1.75 34.89-7.666 50.205-17.755l24.37 24.379c.018.018.039.034.057.052l12.586 12.586h-87.65zm173.299 43.223c1.416 1.417 2.196 3.3 2.196 5.303s-.78 3.886-2.196 5.303h-.001c-1.416 1.417-3.3 2.197-5.303 2.197s-3.887-.78-5.303-2.197l-71.771-71.771 10.606-10.606 41.338 41.338.027.027z"/><path d="m478.5 60.5h-55v-36.5c0-4.142-3.357-7.5-7.5-7.5s-7.5 3.358-7.5 7.5v36.5h-65v-36.5c0-4.142-3.357-7.5-7.5-7.5s-7.5 3.358-7.5 7.5v36.5h-65v-36.5c0-4.142-3.357-7.5-7.5-7.5s-7.5 3.358-7.5 7.5v36.5h-65v-36.5c0-4.142-3.357-7.5-7.5-7.5s-7.5 3.358-7.5 7.5v36.5h-65v-36.5c0-4.142-3.357-7.5-7.5-7.5s-7.5 3.358-7.5 7.5v36.5h-55c-18.472 0-33.5 15.028-33.5 33.5v33.5c0 4.142 3.357 7.5 7.5 7.5s7.5-3.358 7.5-7.5v-33.5c0-10.201 8.299-18.5 18.5-18.5h55v19.548c-11.528 3.274-20 13.889-20 26.452 0 15.164 12.337 27.5 27.5 27.5s27.5-12.336 27.5-27.5c0-12.563-8.472-23.178-20-26.452v-19.548h65v19.548c-11.528 3.274-20 13.889-20 26.452 0 15.164 12.337 27.5 27.5 27.5s27.5-12.336 27.5-27.5c0-12.563-8.472-23.178-20-26.452v-19.548h65v19.548c-11.528 3.274-20 13.889-20 26.452 0 15.164 12.337 27.5 27.5 27.5s27.5-12.336 27.5-27.5c0-12.563-8.472-23.178-20-26.452v-19.548h65v19.548c-11.528 3.274-20 13.889-20 26.452 0 15.164 12.337 27.5 27.5 27.5s27.5-12.336 27.5-27.5c0-12.563-8.472-23.178-20-26.452v-19.548h65v19.548c-11.528 3.274-20 13.889-20 26.452 0 15.164 12.337 27.5 27.5 27.5s27.5-12.336 27.5-27.5c0-12.563-8.472-23.178-20-26.452v-19.548h55c10.201 0 18.5 8.299 18.5 18.5v225.685c0 4.142 3.357 7.5 7.5 7.5s7.5-3.358 7.5-7.5v-225.685c0-18.472-15.028-33.5-33.5-33.5zm-370 60.999c0 6.893-5.607 12.5-12.5 12.5s-12.5-5.607-12.5-12.5c0-4.077 1.971-7.693 5-9.976v.476c0 4.142 3.357 7.5 7.5 7.5s7.5-3.358 7.5-7.5v-.476c3.029 2.283 5 5.899 5 9.976zm80 0c0 6.893-5.607 12.5-12.5 12.5s-12.5-5.607-12.5-12.5c0-4.077 1.971-7.693 5-9.976v.476c0 4.142 3.357 7.5 7.5 7.5s7.5-3.358 7.5-7.5v-.476c3.029 2.283 5 5.899 5 9.976zm80 0c0 6.893-5.607 12.5-12.5 12.5s-12.5-5.607-12.5-12.5c0-4.077 1.971-7.693 5-9.976v.476c0 4.142 3.357 7.5 7.5 7.5s7.5-3.358 7.5-7.5v-.476c3.029 2.283 5 5.899 5 9.976zm80 0c0 6.893-5.607 12.5-12.5 12.5s-12.5-5.607-12.5-12.5c0-4.077 1.971-7.693 5-9.976v.476c0 4.142 3.357 7.5 7.5 7.5s7.5-3.358 7.5-7.5v-.476c3.029 2.283 5 5.899 5 9.976zm80 0c0 6.893-5.607 12.5-12.5 12.5s-12.5-5.607-12.5-12.5c0-4.077 1.971-7.693 5-9.976v.476c0 4.142 3.357 7.5 7.5 7.5s7.5-3.358 7.5-7.5v-.476c3.029 2.283 5 5.899 5 9.976z"/><path d="m104.941 362.709h57.82c4.143 0 7.5-3.358 7.5-7.5s-3.357-7.5-7.5-7.5h-57.82c-4.143 0-7.5 3.358-7.5 7.5s3.358 7.5 7.5 7.5z"/><path d="m104.941 398.709h144c4.143 0 7.5-3.358 7.5-7.5s-3.357-7.5-7.5-7.5h-144c-4.143 0-7.5 3.358-7.5 7.5s3.358 7.5 7.5 7.5z"/><path d="m360.014 222.716c-15.394-15.393-35.86-23.871-57.63-23.871s-42.236 8.477-57.63 23.87c-31.775 31.777-31.775 83.482 0 115.259 15.393 15.393 35.859 23.871 57.63 23.871s42.236-8.477 57.63-23.87c31.775-31.778 31.775-83.482 0-115.259zm-10.608 104.652c-12.56 12.56-29.259 19.477-47.022 19.477s-34.463-6.917-47.022-19.477c-25.928-25.928-25.928-68.117-.001-94.046 12.561-12.56 29.261-19.477 47.023-19.477s34.463 6.917 47.022 19.477c25.928 25.928 25.928 68.117 0 94.046z"/></g></g></svg>