<svg id="Capa_1" data-name="Capa 1" xmlns="http://www.w3.org/2000/svg" viewBox="0 0 437.19 496.56">
    <path
        d="M327,329.44,324.5,432.3l-68.58,46.54-67.35-45.31-3.68-104.09s22.05-20.82,15.92-41.64H308.58C304.91,308.62,327,329.44,327,329.44Z"
        transform="translate(-37.94 -8)" style="fill:#f8b64c" />
    <ellipse cx="167.7" cy="198.6" rx="17.14" ry="24.49"
        transform="translate(-101.01 70.97) rotate(-22.42)" style="fill:#f8b64c" />
    <ellipse cx="343.12" cy="198.64" rx="24.49" ry="17.14"
        transform="translate(-9.31 432.06) rotate(-67.58)" style="fill:#f8b64c" />
    <path
        d="M353.89,158a87,87,0,0,1-1.22,17.14h0c-7.35,57.56-47.76,150.63-96.75,150.63s-89.4-93.07-96.74-151.85C158,169,158,162.89,158,158c0-53.88,44.09-98,98-98S353.89,104.11,353.89,158Z"
        transform="translate(-37.94 -8)" style="fill:#ffd15c" />
    <path
        d="M161.62,192.28c-2.44-13.47-1.22-31.84,7.35-41.64,0,0-7.35-62.45,38-58.78,0,0,36.73,12.25,105.31,0,0,0,28.17-1.23,23.27,28.17,0,0-7.35,26.94,7.35,33.06l6.12,38,6.13-28.16c11-51.44-1.23-102.87-49-126.14h-1.22c6.12-8.57,18.37-4.9,18.37-4.9-80.83-51.43-134.71-3.67-134.71-3.67C131,80.84,149.38,142.07,149.38,142.07,143.26,164.11,161.62,192.28,161.62,192.28Z"
        transform="translate(-37.94 -8)" style="fill:#40596b" />
    <polygon
        points="368.61 432.88 345.34 432.88 345.34 409.61 329.42 409.61 329.42 432.88 306.16 432.88 306.16 448.8 329.42 448.8 329.42 472.06 345.34 472.06 345.34 448.8 368.61 448.8 368.61 432.88"
        style="fill:#ff7058" />
    <path
        d="M427.37,385.77,377.16,357.6,327,329.44,282.86,436l-17.14-72.25L278,350.25H233.88l12.24,13.48L229,436,186.12,329.44l-47.5,26.64A49.26,49.26,0,1,1,57.1,411.39,96.64,96.64,0,0,0,37.94,469v35.52H475.13V469A96.65,96.65,0,0,0,427.37,385.77Z"
        transform="translate(-37.94 -8)" style="fill:#f2f2f2" />
    <circle cx="60.41" cy="376.45" r="40.43" style="fill:#ffc107" />
    <path
        d="M120.35,379.27a2.34,2.34,0,0,0-2-1.61l-12.77-1.16-5-11.82a2.35,2.35,0,0,0-4.33,0L91.13,376.5l-12.77,1.16A2.35,2.35,0,0,0,77,381.77l9.65,8.47-2.85,12.54a2.36,2.36,0,0,0,2.29,2.87,2.37,2.37,0,0,0,1.21-.33l11-6.59,11,6.59a2.36,2.36,0,0,0,3.5-2.54L110,390.24l9.65-8.47a2.35,2.35,0,0,0,.69-2.5Zm0,0"
        transform="translate(-37.94 -8)" style="fill:#fff" />
</svg>