<svg id="Capa_1" enable-background="new 0 0 512 512" height="512" viewBox="0 0 512 512" width="512" xmlns="http://www.w3.org/2000/svg"><g><g clip-rule="evenodd" fill-rule="evenodd"><path d="m73.985 60.038h272.299c17.688 0 32.146 14.458 32.146 32.146v412.333c-101.482 0-202.964 0-304.445 0-17.688 0-32.146-14.485-32.146-32.174v-380.159c.001-17.688 14.458-32.146 32.146-32.146z" fill="#fff8ef"/><path d="m317.145 60.038h29.14c17.688 0 32.146 14.458 32.146 32.146v380.159c0 17.689-14.458 32.174-32.146 32.174h-29.14c17.688 0 32.173-14.485 32.173-32.174v-380.159c-.001-17.688-14.486-32.146-32.173-32.146z" fill="#fff1dd"/><path d="m129.205 33.761h16.951c5.471 0 5.499-1.955 6.604-6.377 2.863-11.397 13.238-19.871 25.484-19.871h63.78c12.274 0 22.648 8.531 25.483 19.955.879 3.486 2.466 6.293 6.605 6.293h16.951c14.458 0 26.278 11.82 26.278 26.277 0 14.43-11.82 26.25-26.278 26.25h-161.858c-14.457 0-26.277-11.82-26.277-26.25 0-14.457 11.82-26.277 26.277-26.277z" fill="#f6d190"/><path d="m212.913 7.513h29.112c12.274 0 22.648 8.531 25.483 19.955.879 3.486 2.466 6.293 6.605 6.293h16.951c14.458 0 26.278 11.82 26.278 26.277 0 14.43-11.82 26.25-26.278 26.25h-29.111c14.428 0 26.248-11.82 26.248-26.25 0-14.457-11.82-26.277-26.248-26.277h-16.951c-4.139 0-5.727-2.807-6.605-6.293-2.835-11.424-13.238-19.955-25.484-19.955z" fill="#ecbd83"/><g fill="#80b4fb"><path d="m210.135 170.308c10.602 0 19.248-8.646 19.248-19.219 0-10.603-8.646-19.248-19.248-19.248s-19.247 8.645-19.247 19.248c0 10.573 8.645 19.219 19.247 19.219z"/><path d="m210.135 314.509c10.602 0 19.248-8.646 19.248-19.248 0-10.603-8.646-19.248-19.248-19.248s-19.247 8.646-19.247 19.248c0 10.601 8.645 19.248 19.247 19.248z"/><path d="m147.688 206.364c10.602 0 19.247-8.646 19.247-19.247 0-10.602-8.646-19.247-19.247-19.247-10.573 0-19.22 8.645-19.22 19.247s8.646 19.247 19.22 19.247z"/><path d="m147.688 278.451c10.602 0 19.247-8.647 19.247-19.248 0-10.602-8.646-19.247-19.247-19.247-10.573 0-19.22 8.645-19.22 19.247s8.646 19.248 19.22 19.248z"/><path d="m272.555 206.364c10.602 0 19.247-8.646 19.247-19.247 0-10.602-8.645-19.247-19.247-19.247s-19.247 8.645-19.247 19.247 8.645 19.247 19.247 19.247z"/><path d="m272.555 278.451c10.602 0 19.247-8.647 19.247-19.248 0-10.602-8.645-19.247-19.247-19.247s-19.247 8.645-19.247 19.247 8.645 19.248 19.247 19.248z"/></g><path d="m420.894 331.403c29.282 15.307 49.295 46.007 49.295 81.355 0 50.685-41.074 91.759-91.758 91.759-50.685 0-91.76-41.074-91.76-91.759 0-35.093 19.702-65.565 48.644-81.015 8.929-4.763 11.111-8.022 11.111-18v-81.27h64.036v80.987c0 10.346 1.134 13.067 10.432 17.943z" fill="#ecf4ff"/><path d="m420.894 331.403c29.282 15.307 49.295 46.007 49.295 81.355 0 50.685-41.074 91.759-91.758 91.759-5.357 0-10.602-.482-15.705-1.361 43.172-7.455 76.055-45.069 76.055-90.397 0-35.348-20.013-66.048-49.323-81.355-9.298-4.876-10.432-7.598-10.432-17.943v-80.987h31.437v80.987c-.001 10.345 1.133 13.066 10.431 17.942z" fill="#ddeafb"/><path d="m346.426 237.717h64.036c8.815 0 16.044-7.229 16.044-16.044 0-8.846-7.229-16.074-16.044-16.074h-64.036c-8.844 0-16.072 7.229-16.072 16.074-.001 8.815 7.228 16.044 16.072 16.044z" fill="#ddeafb"/><path d="m379.025 237.717h31.437c8.815 0 16.044-7.229 16.044-16.044 0-8.846-7.229-16.074-16.044-16.074h-31.437c8.845 0 16.072 7.229 16.072 16.074.001 8.815-7.227 16.044-16.072 16.044z" fill="#bed8fb"/><path d="m470.189 412.758h-183.518c0 50.685 41.075 91.759 91.76 91.759 50.683 0 91.758-41.075 91.758-91.759z" fill="#e0c0ef"/><path d="m470.189 412.758h-31.409c0 45.328-32.883 82.942-76.055 90.397 5.104.879 10.348 1.361 15.705 1.361 50.684.001 91.759-41.074 91.759-91.758z" fill="#ccb2ef"/></g><path d="m309.831 60.038c0-4.988-1.984-9.723-5.527-13.266-3.402-3.402-8.079-5.5-13.239-5.5h-16.951c-4.45 0-7.682-1.644-10.091-4.336-1.984-2.212-3.062-4.848-3.77-7.683-1.021-4.139-3.43-7.738-6.69-10.29-3.175-2.466-7.172-3.969-11.537-3.969h-63.78c-4.365 0-8.334 1.475-11.509 3.941-4.082 3.203-6.18 8.078-6.945 11.168-1.871 7.71-2.693 11.168-13.635 11.168h-16.951c-5.159 0-9.837 2.098-13.267 5.5-3.401 3.43-5.499 8.107-5.499 13.266 0 5.131 2.098 9.836 5.499 13.239 3.43 3.401 8.107 5.527 13.267 5.527h161.859c5.16 0 9.837-2.126 13.239-5.527 3.401-3.402 5.527-8.107 5.527-13.238zm-181.363 407.571c-4.139 0-7.512-3.373-7.512-7.512s3.373-7.483 7.512-7.483h124.697c4.139 0 7.512 3.345 7.512 7.483 0 4.139-3.373 7.512-7.512 7.512zm-25.54-29.14c-4.139 0-7.483-3.346-7.483-7.484 0-4.139 3.345-7.512 7.483-7.512h150.237c4.139 0 7.512 3.373 7.512 7.512s-3.373 7.484-7.512 7.484zm0-29.113c-4.139 0-7.483-3.345-7.483-7.483 0-4.167 3.345-7.512 7.483-7.512h150.237c4.139 0 7.512 3.345 7.512 7.512 0 4.139-3.373 7.483-7.512 7.483zm0-29.112c-4.139 0-7.483-3.373-7.483-7.512s3.345-7.482 7.483-7.482h150.237c4.139 0 7.512 3.344 7.512 7.482 0 4.139-3.373 7.512-7.512 7.512zm64.177-29.141c-4.139 0-7.512-3.345-7.512-7.483 0-4.139 3.373-7.512 7.512-7.512h86.06c4.139 0 7.512 3.373 7.512 7.512s-3.373 7.483-7.512 7.483zm-19.417-190.716c7.199 0 13.719 2.835 18.51 7.427l17.943-10.375c-.481-2.041-.765-4.167-.765-6.35 0-7.399 3.004-14.089 7.851-18.937 4.848-4.818 11.51-7.823 18.907-7.823 7.37 0 14.061 3.005 18.907 7.823 4.848 4.848 7.824 11.537 7.824 18.937 0 2.183-.256 4.309-.766 6.35l17.972 10.375c4.791-4.592 11.311-7.427 18.482-7.427 7.398 0 14.088 2.977 18.907 7.823 4.848 4.848 7.853 11.537 7.853 18.907 0 7.398-3.005 14.06-7.853 18.907-3.119 3.146-7.03 5.499-11.396 6.775v20.722c4.365 1.275 8.276 3.656 11.396 6.775 4.848 4.847 7.853 11.537 7.853 18.906 0 7.398-3.005 14.088-7.853 18.907-4.819 4.847-11.509 7.852-18.907 7.852-7.172 0-13.691-2.835-18.482-7.428l-17.972 10.348c.51 2.041.766 4.166.766 6.378 0 7.371-2.977 14.061-7.824 18.907-4.847 4.848-11.537 7.823-18.907 7.823-7.397 0-14.06-2.976-18.907-7.823-4.848-4.847-7.851-11.536-7.851-18.907 0-2.212.283-4.337.765-6.378l-17.943-10.348c-4.819 4.593-11.311 7.428-18.51 7.428-7.37 0-14.061-3.006-18.907-7.852-4.82-4.819-7.824-11.509-7.824-18.907 0-7.369 3.004-14.059 7.824-18.906 3.146-3.119 7.058-5.5 11.423-6.775v-20.721c-4.365-1.276-8.276-3.629-11.423-6.775-4.82-4.848-7.824-11.509-7.824-18.907 0-7.37 3.004-14.06 7.824-18.907 4.846-4.848 11.536-7.824 18.907-7.824zm25.993 20.352c.511 2.041.766 4.195.766 6.378 0 7.398-3.005 14.06-7.823 18.907-3.147 3.146-7.059 5.499-11.424 6.775v20.722c4.365 1.275 8.276 3.656 11.424 6.775 4.818 4.847 7.823 11.537 7.823 18.906 0 2.211-.255 4.338-.766 6.379l17.972 10.346c4.791-4.592 11.312-7.426 18.482-7.426 7.172 0 13.691 2.834 18.482 7.426l17.972-10.346c-.51-2.041-.765-4.168-.765-6.379 0-7.369 2.976-14.059 7.823-18.906 3.146-3.119 7.058-5.5 11.424-6.775v-20.721c-4.366-1.276-8.277-3.629-11.424-6.775-4.848-4.848-7.823-11.509-7.823-18.907 0-2.183.255-4.337.765-6.378l-17.943-10.346c-4.819 4.592-11.339 7.426-18.511 7.426-7.171 0-13.691-2.834-18.511-7.426zm-17.689-1.928c-2.126-2.125-5.045-3.43-8.305-3.43-3.232 0-6.18 1.305-8.277 3.43-2.126 2.127-3.459 5.074-3.459 8.306 0 3.26 1.333 6.18 3.459 8.306 2.098 2.126 5.045 3.43 8.277 3.43 3.26 0 6.179-1.304 8.305-3.43s3.459-5.046 3.459-8.306c0-3.231-1.333-6.178-3.459-8.306zm62.448-36.028c-2.126-2.127-5.073-3.459-8.306-3.459-3.26 0-6.179 1.332-8.306 3.459-2.126 2.125-3.43 5.046-3.43 8.306 0 3.231 1.304 6.18 3.43 8.277 2.127 2.126 5.046 3.458 8.306 3.458 3.232 0 6.18-1.332 8.306-3.458 2.126-2.098 3.431-5.046 3.431-8.277 0-3.26-1.305-6.181-3.431-8.306zm62.42 36.028c-2.127-2.125-5.046-3.43-8.306-3.43-3.231 0-6.18 1.305-8.306 3.43-2.126 2.127-3.43 5.074-3.43 8.306 0 3.26 1.304 6.18 3.43 8.306s5.074 3.43 8.306 3.43c3.26 0 6.179-1.304 8.306-3.43 2.125-2.126 3.43-5.046 3.43-8.306 0-3.231-1.305-6.178-3.43-8.306zm-8.305 92.129c3.26 0 6.179-1.305 8.306-3.431 2.125-2.126 3.43-5.046 3.43-8.306 0-3.231-1.305-6.18-3.43-8.305-2.127-2.127-5.046-3.431-8.306-3.431-3.231 0-6.18 1.304-8.306 3.431-2.126 2.125-3.43 5.073-3.43 8.305 0 3.26 1.304 6.18 3.43 8.306s5.074 3.431 8.306 3.431zm-62.42 36.057c3.232 0 6.18-1.305 8.306-3.431s3.431-5.073 3.431-8.306c0-3.261-1.305-6.181-3.431-8.306-2.126-2.127-5.073-3.431-8.306-3.431-3.26 0-6.179 1.304-8.306 3.431-2.126 2.125-3.43 5.045-3.43 8.306 0 3.232 1.304 6.18 3.43 8.306 2.127 2.126 5.046 3.431 8.306 3.431zm-62.447-36.057c3.26 0 6.179-1.305 8.305-3.431s3.459-5.046 3.459-8.306c0-3.231-1.333-6.18-3.459-8.305-2.126-2.127-5.045-3.431-8.305-3.431-3.232 0-6.18 1.304-8.277 3.431-2.126 2.125-3.459 5.073-3.459 8.305 0 3.26 1.333 6.18 3.459 8.306 2.097 2.126 5.044 3.431 8.277 3.431zm171.724 134.306c4.139 0 7.512 3.373 7.512 7.512s-3.373 7.512-7.512 7.512h-24.917c1.815 20.268 10.773 38.468 24.35 52.073 15.251 15.223 36.312 24.662 59.586 24.662 23.271 0 44.334-9.44 59.584-24.662 13.579-13.605 22.565-31.806 24.351-52.073h-108.967c-4.139 0-7.512-3.373-7.512-7.512s3.373-7.512 7.512-7.512h108.966c-1.162-13.152-5.329-25.427-11.792-36.113-7.966-13.153-19.447-23.954-33.139-31.126-6.037-3.146-9.523-5.811-11.792-9.863-2.239-4.025-2.692-8.25-2.692-14.684v-68.231h-49.04v68.515c0 6.406-.822 10.885-3.346 14.91-2.466 3.969-6.094 6.69-11.735 9.694-13.521 7.2-24.831 18-32.712 31.098-6.378 10.602-10.459 22.79-11.622 35.801h24.917zm158.26 7.483c0 26.419-10.375 51.507-29.055 70.215-17.972 17.944-42.776 29.056-70.186 29.056h-304.446c-10.913 0-20.835-4.45-28.007-11.622-7.2-7.2-11.65-17.121-11.65-28.035v-24.264c0-4.139 3.373-7.485 7.512-7.485s7.483 3.347 7.483 7.485v24.264c0 6.775 2.778 12.955 7.257 17.405 4.479 4.479 10.631 7.257 17.405 7.257h251.946c-6.406-3.997-12.359-8.73-17.688-14.061-17.944-17.971-29.056-42.774-29.056-70.186 0-18.623 5.131-36.057 14.116-50.996 9.242-15.421 22.565-28.12 38.495-36.594 3.289-1.759 5.217-3.064 6.066-4.423.794-1.276 1.049-3.431 1.049-7.002v-69.762c-3.486-1.162-6.604-3.118-9.155-5.669-4.252-4.281-6.889-10.148-6.889-16.64s2.637-12.389 6.889-16.641c4.28-4.28 10.176-6.916 16.667-6.916h24.493v-57.403c0-4.139 3.373-7.482 7.512-7.482s7.512 3.344 7.512 7.482v57.403h24.52c6.463 0 12.359 2.636 16.639 6.916 4.252 4.252 6.917 10.148 6.917 16.641 0 6.491-2.665 12.358-6.917 16.64-2.551 2.551-5.669 4.507-9.155 5.669v69.479c0 3.911.142 6.236.766 7.369.623 1.105 2.353 2.24 5.641 3.94 16.102 8.419 29.595 21.146 39.006 36.652 9.069 14.997 14.313 32.571 14.313 51.308zm-67.21-182.496c2.324 0 4.478-.964 6.01-2.522 1.559-1.56 2.522-3.686 2.522-6.038 0-2.353-.964-4.48-2.522-6.039-1.531-1.559-3.686-2.523-6.01-2.523h-32.031-32.005c-2.353 0-4.507.965-6.037 2.523-1.56 1.559-2.523 3.686-2.523 6.039s.964 4.479 2.523 6.038c1.53 1.53 3.656 2.494 6.009 2.522zm-86.486-177.707h22.309c10.913 0 20.808 4.45 28.008 11.65 7.172 7.172 11.65 17.094 11.65 28.007v14.57c0 4.139-3.373 7.484-7.512 7.484s-7.512-3.346-7.512-7.484v-14.57c0-6.774-2.75-12.926-7.229-17.404-4.479-4.479-10.63-7.258-17.405-7.258h-22.309c-1.417 6.294-4.648 11.936-9.07 16.357-6.095 6.123-14.542 9.921-23.841 9.921h-161.86c-9.298 0-17.745-3.798-23.868-9.921-4.422-4.422-7.625-10.063-9.071-16.357h-22.28c-6.774 0-12.926 2.778-17.405 7.258-4.479 4.479-7.257 10.63-7.257 17.404v321.936c0 4.139-3.345 7.482-7.483 7.482-4.139 0-7.512-3.344-7.512-7.482v-321.935c0-10.913 4.45-20.835 11.65-28.007 7.172-7.2 17.094-11.65 28.007-11.65h22.28c1.446-6.293 4.649-11.934 9.071-16.356 6.123-6.095 14.57-9.893 23.868-9.893h16.129c1.758-7.456 5.868-14.174 12.189-19.106 5.754-4.479 12.954-7.172 20.722-7.172h63.78c7.767 0 14.995 2.693 20.721 7.2 6.378 4.989 10.177 11.282 12.189 19.078h16.129c9.299 0 17.746 3.798 23.841 9.893 4.422 4.422 7.654 10.062 9.071 16.355z"/></g></svg>