<svg viewBox="0 0 130 130" xmlns="http://www.w3.org/2000/svg" style="transform: scaleX(-1);"><defs><style>.cls-1,.cls-3{fill:#eaeae9;}.cls-2{fill:#45ba8e;}.cls-3{opacity:0.37;}.cls-10,.cls-4,.cls-5{fill:#595f70;}.cls-4{opacity:0.24;}.cls-5{opacity:0.35;}.cls-6{fill:#353949;}.cls-7{fill:#fff;opacity:0.38;}.cls-8{fill:#70788e;}.cls-9{fill:#353f60;opacity:0.29;}</style></defs><title/><rect class="cls-1" height="13.02" rx="6.18" ry="6.18" width="69.54" x="24.6" y="91.06"/><circle class="cls-2" cx="62.34" cy="68.04" r="14.33"/><ellipse class="cls-3" cx="51.92" cy="73.09" rx="2.62" ry="5.19" transform="translate(-32.29 42.32) rotate(-34.54)"/><path class="cls-1" d="M86.66,30.38l11-12.44a1.26,1.26,0,0,1,1.77-.11l8.36,7.39a1.26,1.26,0,0,1,.11,1.77l-11,12.44"/><path class="cls-4" d="M105.95,25.8l-8.36-7.39a1.26,1.26,0,0,0-1.77.11l-.85,1,7.73,6.83a1.26,1.26,0,0,1,.11,1.77L93.5,38.63,95.06,40l11-12.44A1.26,1.26,0,0,0,105.95,25.8Z"/><rect class="cls-5" height="1.62" width="58.3" x="25.86" y="93.87"/><path class="cls-6" d="M98.2,38.67a1.5,1.5,0,0,1-1.12-2.49l10.83-12.26-8-7.06L89.08,29.11a1.5,1.5,0,0,1-2.25-2l11-12.44a2.74,2.74,0,0,1,1.89-.92,2.7,2.7,0,0,1,2,.68l8.36,7.39a2.76,2.76,0,0,1,.24,3.89l-11,12.44A1.5,1.5,0,0,1,98.2,38.67Z"/><rect class="cls-1" height="7.78" rx="2" ry="2" transform="translate(39.31 -64.97) rotate(41.46)" width="26.08" x="92.44" y="15.56"/><path class="cls-4" d="M116.33,23.62l-.67-.59-2.33,2.64a2,2,0,0,1-2.82.17l-15.88-14-.18.2a2,2,0,0,0,.17,2.82l16.55,14.62a2,2,0,0,0,2.82-.17l2.51-2.84A2,2,0,0,0,116.33,23.62Z"/><rect class="cls-7" height="10.87" transform="translate(20.37 86.67) rotate(-48.54)" width="7.38" x="102.61" y="15.31"/><rect class="cls-7" height="2.22" transform="translate(23.01 79.32) rotate(-48.54)" width="7.38" x="95.78" y="13.03"/><path class="cls-6" d="M112.05,31.58a3.47,3.47,0,0,1-2.31-.87L93.19,16.09a3.51,3.51,0,0,1-.31-4.94l2.51-2.84A3.5,3.5,0,0,1,100.33,8l16.55,14.62a3.51,3.51,0,0,1,.3,4.94l-2.5,2.84a3.48,3.48,0,0,1-2.41,1.17ZM98,10.13a.5.5,0,0,0-.38.17l-2.51,2.84a.51.51,0,0,0,0,.71l16.55,14.62h0a.51.51,0,0,0,.71,0l2.5-2.84a.51.51,0,0,0,0-.71L98.35,10.26A.5.5,0,0,0,98,10.13Z"/><path class="cls-1" d="M86.46,104.5a27.88,27.88,0,1,0,0-55.76L83.13,61a15.65,15.65,0,1,1,0,31.31Z"/><path class="cls-7" d="M87,48.86l-.71,2.6a25.28,25.28,0,0,1,0,50.55l.71,2.6a27.88,27.88,0,1,0,0-55.76Z"/><path class="cls-5" d="M101.72,76.74A18.79,18.79,0,0,0,83.94,58l-.81,3a15.65,15.65,0,1,1,0,31.31L84,95.49A18.79,18.79,0,0,0,101.72,76.74Z"/><path class="cls-6" d="M86.41,106a1.5,1.5,0,0,1,0-3,26.38,26.38,0,0,0,0-52.76,1.5,1.5,0,0,1,0-3,29.38,29.38,0,0,1,0,58.76Z"/><path class="cls-6" d="M83.08,93.77a1.5,1.5,0,0,1,0-3,14.15,14.15,0,0,0,0-28.31,1.5,1.5,0,0,1,0-3,17.15,17.15,0,0,1,0,34.31Z"/><rect class="cls-1" height="52.1" rx="2" ry="2" transform="translate(52.73 -39.77) rotate(41.46)" width="25.14" x="66.32" y="23.72"/><path class="cls-4" d="M105,36.22l-15.85-14a2,2,0,0,0-2.82.17L85.27,23.6,99.55,36.22A2,2,0,0,1,99.72,39L68.94,73.87l1.57,1.39a2,2,0,0,0,2.82-.17l31.85-36A2,2,0,0,0,105,36.22Z"/><rect class="cls-7" height="9.35" transform="translate(-8.78 76.51) rotate(-48.54)" width="48.76" x="56.09" y="43.31"/><rect class="cls-7" height="1.67" transform="translate(-6.12 70.3) rotate(-48.54)" width="48.76" x="50.53" y="41.1"/><path class="cls-6" d="M71,77.68a3.47,3.47,0,0,1-2.31-.87l-15.84-14a3.51,3.51,0,0,1-.31-4.94l31.85-36a3.5,3.5,0,0,1,4.94-.31l15.84,14a3.5,3.5,0,0,1,.3,4.94l-31.85,36a3.48,3.48,0,0,1-2.41,1.17Zm16-54a.5.5,0,0,0-.38.17l-31.85,36a.51.51,0,0,0,0,.71l15.84,14h0a.52.52,0,0,0,.36.12.5.5,0,0,0,.34-.17l31.85-36a.51.51,0,0,0,0-.71l-15.84-14A.5.5,0,0,0,87,23.64Z"/><rect class="cls-1" height="11.03" rx="2" ry="2" transform="translate(60.78 -24.49) rotate(41.46)" width="36.97" x="44.26" y="62.53"/><path class="cls-4" d="M78.6,74.61l-4.33,4.9a2,2,0,0,1-2.82.17L46.89,58l-.33.37a2,2,0,0,0,.17,2.82L71.45,83a2,2,0,0,0,2.82-.17l4.66-5.27a2,2,0,0,0-.17-2.82Z"/><rect class="cls-7" height="34.35" transform="translate(-26.49 70.22) rotate(-48.54)" width="2.04" x="63.61" y="47.31"/><rect class="cls-7" height="15.63" transform="translate(-30.17 72.87) rotate(-48.54)" width="10.03" x="60.72" y="62.08"/><rect class="cls-7" height="3.45" transform="translate(-26.69 61.64) rotate(-48.54)" width="10.03" x="50" y="58.69"/><path class="cls-6" d="M72.76,85.09a3.47,3.47,0,0,1-2.31-.87L45.75,62.39a3.5,3.5,0,0,1-.31-4.94l4.66-5.27A3.51,3.51,0,0,1,55,51.87L79.75,73.7a3.51,3.51,0,0,1,.3,4.94l-4.66,5.27A3.48,3.48,0,0,1,73,85.08ZM52.72,54a.5.5,0,0,0-.38.17l-4.66,5.27a.51.51,0,0,0,0,.71L72.44,82h0a.51.51,0,0,0,.36.12.5.5,0,0,0,.34-.17l4.66-5.27a.51.51,0,0,0,0-.7L53.05,54.12A.5.5,0,0,0,52.72,54Z"/><path class="cls-6" d="M51.15,106.27H30.39a7.75,7.75,0,0,1,0-15.5H83.13a1.5,1.5,0,0,1,0,3H30.39a4.75,4.75,0,0,0,0,9.5H51.15a1.5,1.5,0,1,1,0,3Z"/><path class="cls-8" d="M64.36,108.86c6.64,0,7.46-9,7.46-9a7.58,7.58,0,0,1,15.17,0s.57,9,4.4,9S93,112.36,93,112.36"/><path class="cls-6" d="M93.66,110.36c-6,0-8-6.82-8.16-10.42a6.08,6.08,0,1,0-12.17-.09,11.53,11.53,0,0,1-3,7.56,10.73,10.73,0,0,1-8,2.95,1.5,1.5,0,1,1,0-3,7.86,7.86,0,0,0,5.82-2.06,8.61,8.61,0,0,0,2.17-5.44,9.08,9.08,0,1,1,18.17,0h0s.52,7.51,5.17,7.51a1.5,1.5,0,0,1,0,3Z"/><path class="cls-8" d="M86.41,108.86h21.77a6.12,6.12,0,0,1,6.1,6.1v5.44a1,1,0,0,1-1,1H14.09a1,1,0,0,1-1-1V115a6.12,6.12,0,0,1,6.1-6.1H74.75"/><path class="cls-9" d="M108.74,108.88a6,6,0,0,1,.57,2.54v5.44a1,1,0,0,1-1,1H13v2.56a1,1,0,0,0,1,1h99.24a1,1,0,0,0,1-1v-5.44A6.12,6.12,0,0,0,108.74,108.88Z"/><path class="cls-6" d="M113.33,122.87H14.09a2.46,2.46,0,0,1-2.46-2.46V115a7.61,7.61,0,0,1,7.6-7.6H74.75a1.5,1.5,0,0,1,0,3H19.24a4.61,4.61,0,0,0-4.6,4.6v4.9h98.15V115a4.61,4.61,0,0,0-4.6-4.6H86.41a1.5,1.5,0,0,1,0-3h21.77a7.61,7.61,0,0,1,7.6,7.6v5.44A2.46,2.46,0,0,1,113.33,122.87Z"/><circle class="cls-10" cx="88.77" cy="54.6" r="8.55"/><path class="cls-6" d="M88.77,64.65a10.05,10.05,0,1,1,10-10.05A10.06,10.06,0,0,1,88.77,64.65Zm0-17.1a7.05,7.05,0,1,0,7,7.05A7.06,7.06,0,0,0,88.77,47.54Z"/><path class="cls-6" d="M89.16,56.1H88.5a1.5,1.5,0,0,1,0-3h.66a1.5,1.5,0,0,1,0,3Z"/><path class="cls-6" d="M79.73,100.6h-.66a1.5,1.5,0,0,1,0-3h.66a1.5,1.5,0,0,1,0,3Z"/><path class="cls-6" d="M69.59,106.27H61.23a1.5,1.5,0,0,1,0-3h8.36a1.5,1.5,0,0,1,0,3Z"/><rect class="cls-2" height="2.33" rx="1.11" ry="1.11" width="50.66" x="28.36" y="87.32"/></svg>