<svg xmlns="http://www.w3.org/2000/svg" viewBox="0 0 981.4 1087.29"><defs><style>.cls-1{fill:#e1e0e2;}.cls-2{fill:#4ac4d1;}.cls-3{fill:#adacb2;}.cls-4{fill:#4c4c4c;}</style></defs><title>ot-icon</title><path d="M482.38,1135.52c-6.82-5.24-13.74-10.37-20.46-15.75-100.73-80.72-162.81-184.47-182-312.22-33.72-224.05,85.4-436.71,293.33-525.74,19.39-8.3,39.69-14.6,59.84-20.93,6.79-2.13,9.33-4.75,9.28-12-.13-18.68,5.52-23.9,24.3-23.91q98.73,0,197.45,0c15.55,0,23.17,6.08,22.29,20.25-.68,10.93,4,13.94,13.31,16.81,167.44,51.82,280.11,160.84,333.36,327.65,63.26,198.2-9.68,414.85-178,539.2a24.49,24.49,0,0,0-8,9c9.59,0,19.19-.09,28.78,0,13.33.15,18.48,4.12,21.71,16.89,9.47,37.49,19.19,74.92,28,112.55,2.12,9,5.87,12.33,14.76,11.09a38.1,38.1,0,0,1,12,.26c8.91,1.66,14.75,7.25,14.85,16.39s-5.61,14.8-14.49,16.69c-3.16.68-6.55.43-9.83.43q-413.55,0-827.1,0c-1.83,0-3.66.07-5.48,0-11.37-.58-19.19-7.57-19.11-17s7.84-16.63,19.34-16.74c26.32-.24,52.66-.46,79,.13,8.74.2,11.75-2.94,13.69-11.1,9-37.61,18.61-75.05,28.08-112.54,3.26-12.89,8.32-16.84,21.61-17,9.64-.11,19.29,0,28.94,0ZM993,976.89c4.05-3.7,7.09-6.12,9.71-8.92,84.43-90,114.77-195.7,85.65-315.41C1062.69,547,996.79,472.48,898.16,427c-6-2.75-11.19-6-17,1.75-2.69,3.56-9.6,5.46-14.62,5.49q-102,.52-204.07,0c-4.76,0-11.56-1.4-13.87-4.65-6.13-8.64-11.95-5.26-18.79-2.24C495.63,486.64,416.69,623.61,432.39,770.8c8.21,76.93,40.67,142.53,94.42,197.84,2.54,2.61,5.45,4.85,10,8.87,0-10.27-.22-17.56,0-24.83,1.18-33.77,26.43-60.17,60.19-60.33q167.31-.78,334.63,0c30.3.12,53.5,20.68,58.76,50.54C992.31,953.43,992.13,964.33,993,976.89ZM834.7,1184.05c179.2-21.62,373.32-181,386.11-425.62,13.38-255.8-173.35-426.74-334.1-464v12.06c0,22.68.54,45.37-.26,68-.33,9.34,3.14,13.28,11.37,16.49,151.85,59.15,246,210.73,233,370.46-8.06,99.06-49.58,181.5-123.38,247.47-11.08,9.9-16.92,19-15.76,34.09,1.35,17.62-5.54,23.45-23.49,23.47q-60.9.06-121.79,0H834.7ZM642.09,294.6c-158.84,36.14-347.92,207-334,464.44,13.56,250.65,215,405.69,385.8,424.67V1066.47H570.26c-31.24,0-33.49-2.09-33.32-33.6,0-7.09-1.83-12-7.47-16.87-94.89-82.21-139.85-185.8-131.24-311.49,5.33-77.83,34.15-146.61,83.87-206.53,40.75-49.1,91.47-84.56,150.65-108.17,3.54-1.41,8.87-4.86,8.93-7.46C642.33,353.19,642.09,324,642.09,294.6Zm122.34,737.52c60.71,0,121.42-.13,182.12.16,8.36,0,11.58-2.06,11.33-11-.6-21.56-.08-43.15-.23-64.72-.14-19.52-10.39-30-29.76-30q-163.47-.14-326.94,0c-19.39,0-29.61,10.49-29.75,30-.15,21.21.49,42.44-.27,63.62-.36,10,3.07,12.19,12.47,12.13C643.75,1031.93,704.09,1032.12,764.44,1032.12Zm.49-632c25.56,0,51.12-.24,76.67.14,7.72.12,11-1.61,10.94-10.22-.41-40.16-.31-80.32-.06-120.48,0-7.23-1.68-10.37-9.68-10.32q-78.31.44-156.63,0c-7.87,0-9.84,2.85-9.79,10.22.27,40.16.35,80.32,0,120.48-.08,8.47,3,10.45,10.83,10.33C713.08,399.86,739,400.11,764.93,400.11ZM435.66,1277.9H600.11c27.77,0,55.55-.31,83.31.18,8.7.15,11.53-2.61,11.1-11.2-.63-12.39-.48-24.85,0-37.26.25-7.15-2-10.23-9.49-11.41-46.84-7.4-91.54-21.77-134.38-42.12a36.64,36.64,0,0,0-14.57-3.64c-21.55-.39-43.12.12-64.67-.33-7.28-.15-10.3,2.58-11.87,9.4-4.42,19.22-9.38,38.31-14.14,57.44C442.3,1251.3,439.22,1263.64,435.66,1277.9Zm657.61,0c-8.72-34.77-16.75-67.33-25.29-99.77-.64-2.43-4.9-5.53-7.52-5.57-23.74-.42-47.5-.31-71.25-.13a20.29,20.29,0,0,0-8.32,2.31c-44,21.4-90,36.29-138.41,43.71-5.77.88-8.18,3.36-8,9.3.3,11.69.06,23.38.07,35.08,0,15,0,15.06,14.56,15.06h244.2Zm-364-.29h70V1067.22h-70Z" transform="translate(-274.21 -225)"/><path d="M1211.5,1312.23c-2.18,0-4.36.12-6.53,0-10.65-.69-18.09-7.35-18.41-16.42-.34-9.36,7.45-16.77,18.53-17.36a131.6,131.6,0,0,1,14.15,0c10.66.58,18.09,7.31,18.42,16.38.34,9.33-7.49,16.72-18.53,17.39C1216.59,1312.36,1214,1312.23,1211.5,1312.23Z" transform="translate(-274.21 -225)"/><path class="cls-1" d="M834.7,1184.05V1066.48h11.73q60.9,0,121.79,0c17.94,0,24.84-5.85,23.49-23.47-1.16-15.12,4.68-24.19,15.76-34.09,73.8-66,115.32-148.4,123.38-247.47,13-159.73-81.17-311.31-233-370.46-8.24-3.21-11.7-7.15-11.37-16.49.8-22.65.26-45.34.26-68V294.41c160.74,37.29,347.47,208.23,334.1,464C1208,1003.08,1013.9,1162.43,834.7,1184.05Z" transform="translate(-274.21 -225)"/><path class="cls-1" d="M642.09,294.6c0,29.41.23,58.59-.4,87.75-.06,2.6-5.39,6-8.93,7.46C573.58,413.43,522.86,448.88,482.11,498c-49.72,59.91-78.54,128.7-83.87,206.53-8.61,125.7,36.35,229.28,131.24,311.49,5.64,4.89,7.5,9.77,7.47,16.87-.17,31.52,2.07,33.6,33.32,33.6H693.9v117.23c-170.77-19-372.24-174-385.8-424.67C294.18,501.6,483.25,330.74,642.09,294.6Z" transform="translate(-274.21 -225)"/><path class="cls-2" d="M764.44,1032.12c-60.34,0-120.69-.19-181,.2-9.4.06-12.83-2.16-12.47-12.13.76-21.18.12-42.41.27-63.62.14-19.54,10.36-30,29.75-30q163.47-.14,326.94,0c19.37,0,29.62,10.5,29.76,30,.15,21.58-.37,43.16.23,64.72.25,8.93-3,11-11.33,11C885.85,1032,825.14,1032.12,764.44,1032.12Z" transform="translate(-274.21 -225)"/><path class="cls-3" d="M764.93,400.11c-25.92,0-51.85-.25-77.77.15-7.86.12-10.91-1.86-10.83-10.33.39-40.16.32-80.32,0-120.48,0-7.37,1.91-10.26,9.79-10.22q78.31.43,156.63,0c8,0,9.72,3.09,9.68,10.32-.25,40.16-.35,80.32.06,120.48.09,8.61-3.21,10.33-10.94,10.22C816,399.87,790.49,400.11,764.93,400.11Z" transform="translate(-274.21 -225)"/><path class="cls-3" d="M435.66,1277.9c3.56-14.27,6.64-26.6,9.7-38.94,4.76-19.14,9.72-38.23,14.14-57.44,1.57-6.82,4.58-9.55,11.87-9.4,21.55.44,43.12-.06,64.67.33a36.64,36.64,0,0,1,14.57,3.64c42.84,20.34,87.54,34.72,134.38,42.12,7.48,1.18,9.74,4.26,9.49,11.41-.44,12.41-.58,24.87,0,37.26.43,8.59-2.4,11.36-11.1,11.2-27.76-.49-55.54-.18-83.31-.18H435.66Z" transform="translate(-274.21 -225)"/><path class="cls-3" d="M1093.27,1277.9H849.07c-14.54,0-14.55,0-14.56-15.06,0-11.69.23-23.39-.07-35.08-.15-5.95,2.26-8.42,8-9.3,48.38-7.42,94.42-22.32,138.41-43.71a20.29,20.29,0,0,1,8.32-2.31c23.75-.19,47.51-.3,71.25.13,2.63,0,6.88,3.14,7.52,5.57C1076.52,1210.57,1084.56,1243.13,1093.27,1277.9Z" transform="translate(-274.21 -225)"/><path class="cls-4" d="M729.26,1277.61V1067.22h70v210.39Z" transform="translate(-274.21 -225)"/></svg>