<svg height="512pt" viewBox="0 0 512 512" width="512pt" xmlns="http://www.w3.org/2000/svg"
    xmlns:xlink="http://www.w3.org/1999/xlink">
    <linearGradient id="a" gradientUnits="userSpaceOnUse" x1="0" x2="512" y1="256" y2="256">
        <stop offset="0" stop-color="#00f1ff" />
        <stop offset=".231" stop-color="#00d8ff" />
        <stop offset=".5138" stop-color="#00c0ff" />
        <stop offset=".7773" stop-color="#00b2ff" />
        <stop offset="1" stop-color="#00adff" />
    </linearGradient>
    <path
        d="m512 256c0 141.386719-114.613281 256-256 256s-256-114.613281-256-256 114.613281-256 256-256 256 114.613281 256 256zm0 0"
        fill="url(#a)" />
    <g fill="#fff">
        <path
            d="m249.886719 378.019531h-119.503907c-4.695312 0-7.527343-2.621093-8.796874-4.183593-1.292969-1.589844-3.3125-4.957032-2.332032-9.660157 13.269532-63.746093 69.511719-110.300781 134.453125-111.835937 1.097657.039062 2.199219.066406 3.308594.066406 1.089844 0 2.171875-.027344 3.253906-.066406 20.105469.441406 39.28125 4.972656 57.039063 13.5 7.464844 3.585937 16.425781.4375 20.011718-7.027344 3.585938-7.46875.441407-16.429688-7.027343-20.015625-5.3125-2.550781-10.734375-4.800781-16.238281-6.761719 20.234374-16.558594 33.175781-41.714844 33.175781-69.839844 0-49.746093-40.46875-90.214843-90.210938-90.214843-49.746093 0-90.214843 40.46875-90.214843 90.214843 0 28.164063 12.976562 53.351563 33.261718 69.90625-18.59375 6.578126-36.046875 16.351563-51.433594 29.007813-30.007812 24.6875-50.871093 59.117187-58.75 96.949219-2.5625 12.316406.507813 24.96875 8.429688 34.707031 7.882812 9.695313 19.574219 15.253906 32.070312 15.253906h119.503907c8.285156 0 15-6.714843 15-15 0-8.285156-6.71875-15-15-15zm-53.082031-215.824219c0-33.203124 27.011718-60.214843 60.210937-60.214843 33.203125 0 60.214844 27.011719 60.214844 60.214843 0 32.265626-25.511719 58.675782-57.421875 60.140626-.929688-.015626-1.859375-.039063-2.789063-.039063-1 0-1.996093.015625-2.992187.035156-31.816406-1.5625-57.222656-27.9375-57.222656-60.136719zm0 0" />
        <path
            d="m418.980469 284.707031-.144531-.160156c-7.394532-7.390625-17.675782-10.890625-29.320313-10.832031-20.730469.105468-45.78125 11.480468-66.515625 32.199218-20.71875 20.734376-32.09375 45.78125-32.195312 66.515626l-.074219.070312c-.054688 11.644531 3.441406 21.925781 10.832031 29.320312l.160156.144532c6.300782 5.652344 15.945313 5.304687 21.820313-.789063 11.773437-12.207031 18.859375-24.414062 7.007812-36.550781l-10.40625-10.480469s6.039063-13.558593 21.378907-28.898437l.738281-.738282c15.335937-15.335937 28.894531-21.375 28.894531-21.375l10.484375 10.402344c12.132813 11.851563 24.339844 4.765625 36.550781-7.007812 6.09375-5.875 6.441406-15.519532.789063-21.820313zm0 0" />
    </g>
</svg>