<?xml version="1.0" encoding="utf-8"?>
<!-- Generator: Adobe Illustrator 24.1.0, SVG Export Plug-In . SVG Version: 6.00 Build 0)  -->
<svg version="1.1" id="Layer_1" xmlns="http://www.w3.org/2000/svg" xmlns:xlink="http://www.w3.org/1999/xlink" x="0px" y="0px"
	 viewBox="0 0 64 64" style="enable-background:new 0 0 64 64;" xml:space="preserve">
<style type="text/css">
	.st0{fill:#020202;}
	.st1{fill:#070707;}
	.st2{fill:#DEDEE0;}
	.st3{fill:#00D6DE;}
	.st4{fill:#ABAAB0;}
	.st5{fill:#77757F;}
	.st6{fill:#DFDFE1;}
</style>
<path class="st0" d="M47.9,52.8c0.7,0,1.2,0,1.8,0c0.8,0,1,0.2,1.2,0.9c0.5,2.1,1.1,4.3,1.6,6.4c0.1,0.4,0.2,0.7,0.7,0.6
	c0.2,0,0.5,0,0.7,0c0.5,0.1,0.9,0.4,0.9,0.9c0,0.5-0.4,0.9-0.9,1c-0.2,0-0.4,0-0.6,0c-15.6,0-31.1,0-46.7,0c-0.1,0-0.2,0-0.3,0
	c-0.7,0-1.2-0.4-1.2-1c0-0.6,0.4-1,1.2-1c1.4,0,2.9,0,4.3,0c0.5,0,0.7-0.1,0.8-0.6c0.5-2.1,1-4.2,1.6-6.3c0.2-0.9,0.5-1,1.3-1
	c0.5,0,1,0,1.5,0c0-0.2-0.2-0.3-0.3-0.3C9.5,47.8,5.7,41.6,4.6,34C2.7,21.4,9.9,8.9,21.7,4.2c1-0.4,1.9-0.7,2.9-1
	c0.3-0.1,0.5-0.2,0.5-0.6c0-1.2,0.3-1.4,1.5-1.4c3.7,0,7.4,0,11,0c1.1,0,1.4,0.3,1.4,1.3c0,0.4,0.1,0.5,0.5,0.7
	c11,3.4,17.9,10.7,19.9,22.1c1.9,11.1-2,20.3-11,27.2C48.3,52.6,48.2,52.6,47.9,52.8z M45,43.6c0.1,0,0.1,0.1,0.2,0.1
	c0.1-0.1,0.1-0.3,0.3-0.4c3.4-3.4,5.2-7.6,5.5-12.4c0.4-7.9-4.1-15-11.2-18.2c-0.4-0.2-0.7-0.4-1,0.1c-0.1,0.2-0.4,0.2-0.7,0.2
	c-3.9,0-7.8,0-11.8,0c-0.3,0-0.6-0.1-0.8-0.3c-0.2-0.4-0.5-0.3-0.8-0.1C14,17.3,10,30.2,16.1,40c0.8,1.4,1.8,2.6,3.1,3.8
	c0-0.5,0-1,0-1.4c0.1-1.8,1.5-3.4,3.4-3.4c6.4,0,12.7,0,19.1,0c1.5,0,2.8,1.1,3.2,2.6C45,42.2,44.9,42.9,45,43.6z M36,55.4
	C46.7,54,57.1,44.8,57.8,31.3C58.5,17.8,49,7.8,39,5.2c0,0.1,0,0.3,0,0.4c0,1.5,0,2.9,0,4.4c0,0.4,0.2,0.4,0.5,0.5
	c7.9,3.3,12.5,9.1,13.3,17.6c0.7,6.9-1.8,12.8-7,17.5c-0.6,0.5-0.9,1-0.8,1.8c0.1,1.1-0.3,1.4-1.4,1.4c-2.4,0-4.7,0-7.1,0
	c-0.2,0-0.5-0.1-0.5,0.3C36,51.2,36,53.3,36,55.4z M28.1,52.2c0-0.9,0-1.9,0-2.8c0-0.4-0.1-0.6-0.5-0.5c-2.3,0-4.5,0-6.8,0
	c-1.4,0-1.6-0.2-1.6-1.6c0-0.7-0.2-1.1-0.7-1.5c-5.8-5.2-8.2-11.6-6.9-19.2c1.3-7.7,5.9-13,13.2-16c0.3-0.1,0.4-0.3,0.4-0.6
	c0-1.4,0-2.8,0-4.2c0-0.5-0.1-0.6-0.6-0.4C12.4,9,4.6,21.2,6.6,33.8c1.2,8,5.4,14.1,12.2,18.3c2.7,1.7,5.7,2.7,8.8,3.3
	c0.4,0.1,0.5,0,0.5-0.4C28.1,54,28.1,53.1,28.1,52.2z M32,46.9c3.5,0,6.9,0,10.4,0c0.4,0,0.6-0.1,0.5-0.5c0-1.2,0-2.5,0-3.7
	c0-1.1-0.6-1.7-1.7-1.7c-6.2,0-12.3,0-18.5,0c-1.1,0-1.7,0.6-1.7,1.7c0,1.2,0,2.4,0,3.7c0,0.5,0.1,0.6,0.6,0.6
	C25.2,46.9,28.6,46.9,32,46.9z M32.1,3.2c-1.5,0-3,0-4.5,0c-0.4,0-0.5,0.1-0.5,0.5c0,2.3,0,4.6,0,6.9c0,0.4,0.1,0.5,0.5,0.5
	c3,0,5.9,0,8.9,0c0.4,0,0.5-0.1,0.5-0.5c0-2.3,0-4.6,0-6.9c0-0.4-0.1-0.5-0.5-0.5C35,3.2,33.5,3.2,32.1,3.2z M20.8,60.8
	c2.2,0,4.4,0,6.6,0c0.4,0,0.7-0.1,0.6-0.6c-0.1-0.7,0-1.4,0-2.2c0-0.4-0.1-0.5-0.5-0.6c-1.5-0.2-2.9-0.6-4.4-1.1
	c-1.3-0.4-2.4-1.2-3.7-1.4c-1.3-0.3-2.6-0.1-4-0.1c0,0-0.1,0-0.1,0c-0.4-0.1-0.5,0.1-0.6,0.5c-0.4,1.6-0.8,3.3-1.2,4.9
	c-0.1,0.5,0,0.6,0.5,0.6C16.3,60.8,18.6,60.8,20.8,60.8z M43.2,60.8c2.3,0,4.5,0,6.8,0c0.4,0,0.6-0.1,0.5-0.6
	c-0.4-1.6-0.8-3.3-1.2-4.9c-0.1-0.4-0.2-0.5-0.6-0.5c-1.2,0-2.5,0-3.7,0c-0.2,0-0.4,0-0.7,0.1c-2.5,1.2-5.1,2.1-7.8,2.5
	c-0.3,0-0.5,0.2-0.4,0.5c0,0.7,0,1.4,0,2.2c0,0.5,0.1,0.7,0.6,0.7C38.8,60.7,41,60.8,43.2,60.8z M30.1,54.8c0,1.8,0,3.6,0,5.5
	c0,0.4,0.1,0.5,0.5,0.5c1,0,2,0,3,0c0.4,0,0.4-0.1,0.4-0.5c0-3.7,0-7.4,0-11c0-0.4-0.1-0.4-0.4-0.4c-1,0-2,0-3,0
	c-0.4,0-0.5,0.1-0.5,0.5C30.1,51.2,30.1,53,30.1,54.8z"/>
<path class="st1" d="M57.4,60.8c1,0,1.5,0.3,1.5,1c0,0.7-0.5,1-1.5,1c-1,0-1.5-0.3-1.5-1C55.9,61.1,56.3,60.8,57.4,60.8z"/>
<path class="st2" d="M36,55.4c0-2.1,0-4.2,0-6.3c0-0.4,0.3-0.3,0.5-0.3c2.4,0,4.7,0,7.1,0c1.1,0,1.4-0.3,1.4-1.4
	c-0.1-0.8,0.3-1.3,0.8-1.8c5.2-4.7,7.7-10.5,7-17.5c-0.8-8.5-5.5-14.3-13.3-17.6c-0.2-0.1-0.5-0.1-0.5-0.5c0-1.5,0-2.9,0-4.4
	c0-0.1,0-0.3,0-0.4c10,2.5,19.4,12.6,18.8,26C57.1,44.8,46.7,54,36,55.4z"/>
<path class="st2" d="M28.1,52.2c0,0.9,0,1.9,0,2.8c0,0.4-0.1,0.5-0.5,0.4c-3.1-0.6-6.1-1.6-8.8-3.3c-6.8-4.2-11-10.4-12.2-18.3
	c-2-12.5,5.8-24.8,18-28.5c0.5-0.1,0.6-0.1,0.6,0.4c0,1.4,0,2.8,0,4.2c0,0.3-0.1,0.5-0.4,0.6c-7.3,3-11.8,8.3-13.2,16
	c-1.3,7.6,1.2,14.1,6.9,19.2c0.5,0.4,0.7,0.9,0.7,1.5c-0.1,1.3,0.2,1.6,1.6,1.6c2.3,0,4.5,0,6.8,0c0.4,0,0.5,0.1,0.5,0.5
	C28.1,50.3,28.1,51.3,28.1,52.2z"/>
<path class="st3" d="M32,46.9c-3.4,0-6.9,0-10.3,0c-0.5,0-0.6-0.1-0.6-0.6c0-1.2,0-2.4,0-3.7c0-1.1,0.6-1.7,1.7-1.7
	c6.2,0,12.3,0,18.5,0c1.1,0,1.7,0.6,1.7,1.7c0,1.2,0,2.5,0,3.7c0,0.4-0.1,0.6-0.5,0.5C39,46.9,35.5,46.9,32,46.9z"/>
<path class="st4" d="M32.1,3.2c1.5,0,3,0,4.5,0c0.4,0,0.5,0.1,0.5,0.5c0,2.3,0,4.6,0,6.9c0,0.4-0.1,0.5-0.5,0.5c-3,0-5.9,0-8.9,0
	c-0.4,0-0.5-0.1-0.5-0.5c0-2.3,0-4.6,0-6.9c0-0.4,0.1-0.5,0.5-0.5C29.1,3.2,30.6,3.2,32.1,3.2z"/>
<path class="st5" d="M20.8,60.8c-2.3,0-4.5,0-6.8,0c-0.4,0-0.6-0.1-0.5-0.6c0.4-1.6,0.8-3.3,1.2-4.9c0.1-0.4,0.2-0.6,0.6-0.5
	c0,0,0.1,0,0.1,0c1.3,0,2.7-0.2,4,0.1c1.3,0.3,2.4,1,3.7,1.4c1.4,0.5,2.9,0.9,4.4,1.1c0.4,0.1,0.5,0.2,0.5,0.6c0,0.7,0,1.4,0,2.2
	c0,0.5-0.2,0.6-0.6,0.6C25.3,60.7,23,60.8,20.8,60.8z"/>
<path class="st5" d="M43.2,60.8c-2.2,0-4.4,0-6.6,0c-0.5,0-0.7-0.2-0.6-0.7c0-0.7,0-1.4,0-2.2c0-0.3,0.1-0.5,0.4-0.5
	c2.7-0.4,5.3-1.2,7.8-2.5c0.2-0.1,0.4-0.1,0.7-0.1c1.2,0,2.5,0,3.7,0c0.4,0,0.5,0.1,0.6,0.5c0.4,1.6,0.8,3.3,1.2,4.9
	c0.1,0.5,0,0.6-0.5,0.6C47.8,60.8,45.5,60.8,43.2,60.8z"/>
<path class="st6" d="M30.1,54.8c0-1.8,0-3.6,0-5.5c0-0.4,0.1-0.5,0.5-0.5c1,0,2,0,3,0c0.3,0,0.4,0.1,0.4,0.4c0,3.7,0,7.4,0,11
	c0,0.3-0.1,0.5-0.4,0.5c-1,0-2,0-3,0c-0.4,0-0.5-0.1-0.5-0.5C30.1,58.4,30.1,56.6,30.1,54.8z"/>
</svg>
