<svg id="Layer_1" data-name="Layer 1" xmlns="http://www.w3.org/2000/svg" viewBox="0 0 390 372">
    <path d="M375.79,116.64v195h-360v-195a15,15,0,0,1,15-15h330a15,15,0,0,1,15,15Zm0,0"
        transform="translate(-9.79 -23.64)" style="fill:#96c8ef" />
    <rect x="156" y="186" width="60" height="54" style="fill:#ffdaaa" />
    <path
        d="M327.79,305.16v6.48h-264v-6.48a60,60,0,0,1,46.26-58.4l55.74-13.12c0,13.26,13.43,24,30,24s30-10.74,30-24l55.73,13.12a60,60,0,0,1,46.27,58.4Zm0,0"
        transform="translate(-9.79 -23.64)" style="fill:#00d7df" />
    <path d="M375.79,311.64v15a15,15,0,0,1-15,15h-330a15,15,0,0,1-15-15v-15Zm0,0"
        transform="translate(-9.79 -23.64)" style="fill:#e0e0e2" />
    <path d="M135.79,113.64v48h-12a12,12,0,0,1-12-12v-24a12,12,0,0,1,12-12Zm0,0"
        transform="translate(-9.79 -23.64)" style="fill:#ffdaaa" />
    <path d="M279.79,125.64v24a12,12,0,0,1-12,12h-12v-48h12a12,12,0,0,1,12,12Zm0,0"
        transform="translate(-9.79 -23.64)" style="fill:#ffdaaa" />
    <path d="M231.79,155.64v60h-72v-60l36-6Zm0,0" transform="translate(-9.79 -23.64)"
        style="fill:#00d7df" />
    <path d="M147.79,281.64a12,12,0,1,1-12-12,12,12,0,0,1,12,12Zm0,0"
        transform="translate(-9.79 -23.64)" style="fill:#e0e0e2" />
    <path
        d="M267.79,89.64v24h-12c-7,0-13.93-5.39-19.85-12-9.39-10.47-16.15-24-16.15-24-2.89,8.67-22.5,17.34-42,24-21,7.17-42,12-42,12h-12v-24a60,60,0,0,1,60-60h24a60,60,0,0,1,60,60Zm0,0"
        transform="translate(-9.79 -23.64)" style="fill:#787680" />
    <path
        d="M255.79,113.64v54a48,48,0,0,1-24,41.58V155.64l-36-6-36,6v53.58a48,48,0,0,1-24-41.58v-54s20.94-4.83,42-12c19.54-6.66,39.15-15.33,42-24,0,0,6.76,13.53,16.15,24,5.92,6.61,12.88,12,19.85,12Zm0,0"
        transform="translate(-9.79 -23.64)" style="fill:#ffdaaa" />
    <path d="M237.79,371.64h-84l6-30H231Zm0,0" transform="translate(-9.79 -23.64)"
        style="fill:#acabb1" />
    <rect x="120" y="348" width="132" height="18" style="fill:#e0e0e2" />
    <path d="M171.79,125.64a6,6,0,1,1-6-6,6,6,0,0,1,6,6Zm0,0" transform="translate(-9.79 -23.64)" />
    <path d="M231.79,125.64a6,6,0,1,1-6-6,6,6,0,0,1,6,6Zm0,0" transform="translate(-9.79 -23.64)" />
    <path
        d="M360.79,95.64h-87v-6a66.09,66.09,0,0,0-66-66h-24a66.08,66.08,0,0,0-66,66v6h-87a21,21,0,0,0-21,21v210a21,21,0,0,0,21,21H152.47l-3.61,18H129.79a6,6,0,0,0-6,6v12h-30a6,6,0,0,0,0,12h204a6,6,0,1,0,0-12h-30v-12a6,6,0,0,0-6-6h-19.2l-4.05-18H360.79a21,21,0,0,0,21-21v-210a21,21,0,0,0-21-21Zm-87,30v24a6,6,0,0,1-6,6h-6v-36h6a6,6,0,0,1,6,6Zm-144-36a54.06,54.06,0,0,1,54-54h24a54.07,54.07,0,0,1,54,54v18h-6c-10.77,0-25.29-22-30.63-32.68a6,6,0,0,0-11.07.78c-.46,1.41-4.61,9-40.38,20.94-17.73,5.91-35.1,10.13-38.62,11h-5.3Zm99.93,59.58-32.95-5.5a5.92,5.92,0,0,0-2,0l-33,5.5-20.06-20.06V118.37c7-1.75,21.05-5.43,35.64-10.29,23.4-7.8,35.31-14.36,41.52-19.67,1.94,3.19,4.41,7,7.28,10.83,8,10.7,15.93,17.22,23.56,19.49v10.43Zm20.07-3.09v21.51a42.17,42.17,0,0,1-12,29.38V158.13Zm-18,153.51h12a6,6,0,0,0,0-12h-5a18,18,0,0,1,33.95,0h-5a6,6,0,0,0,0,12h12a6,6,0,0,0,6-6,30.06,30.06,0,0,0-24-29.4v-16l18.36,4.32a53.8,53.8,0,0,1,41.64,52.56v.48h-252v-.48a53.78,53.78,0,0,1,41.63-52.56l18.37-4.32v15.36a5.75,5.75,0,0,0,.09,1,18,18,0,1,0,11.82,0,8.61,8.61,0,0,0,.09-1v-18c0-.06,0-.12,0-.19L160.87,241c3.93,13,18.09,22.68,34.92,22.68s31-9.66,34.91-22.68l19.09,4.49v18.79a30,30,0,0,0-24,29.4,6,6,0,0,0,6,6Zm-96-24a6,6,0,1,1-6,6,6,6,0,0,1,6-6Zm30-66V160.73l30-5,30,5v48.91Zm54,12v12c0,9.92-10.77,18-24,18s-24-8.08-24-18v-12Zm-66-63.51V197a42.12,42.12,0,0,1-12-29.38V146.13Zm-30-38.49h6v36h-6a6,6,0,0,1-6-6v-24a6,6,0,0,1,6-6Zm-102-3a9,9,0,0,1,9-9h87v1a18,18,0,0,0-12,17v24a18,18,0,0,0,18,18h6a54.15,54.15,0,0,0,24,44.9v3.1a6,6,0,0,0,6,6v7.25l-51.12,12a65.74,65.74,0,0,0-50.88,64.24v.48h-36Zm234,261v6h-120v-6Zm-94.68-12,3.6-18h61.52l4.06,18Zm208.68-39a9,9,0,0,1-9,9h-330a9,9,0,0,1-9-9v-9h348Zm0-21h-36v-.48a65.75,65.75,0,0,0-50.89-64.24l-51.11-12v-7.25a6,6,0,0,0,6-6v-3.1a54.2,54.2,0,0,0,24-44.9h6a18,18,0,0,0,18-18v-24a18,18,0,0,0-12-17v-1h87a9,9,0,0,1,9,9Zm0,0"
        transform="translate(-9.79 -23.64)" />
    <path d="M316.79,383.64" transform="translate(-9.79 -23.64)" />
    <path
        d="M389.65,86.16H326.17A10.14,10.14,0,0,0,316,96.3v59.07a10.14,10.14,0,0,0,10.14,10.14h63.48a10.14,10.14,0,0,0,10.14-10.14V96.3a10.14,10.14,0,0,0-10.14-10.14Zm0,0"
        transform="translate(-9.79 -23.64)" style="fill:#ebf0f3" />
    <path
        d="M399.79,105.21V92.92a10.14,10.14,0,0,0-10.14-10.14H326.17A10.14,10.14,0,0,0,316,92.92v12.29Zm0,0"
        transform="translate(-9.79 -23.64)" style="fill:#ce412d" />
    <path
        d="M399.79,107.5V96.3a10.14,10.14,0,0,0-10.14-10.14H326.17A10.14,10.14,0,0,0,316,96.3v11.2Zm0,0"
        transform="translate(-9.79 -23.64)" style="fill:#e56353" />
    <path d="M332.64,91.6a3.54,3.54,0,1,0,3.54,3.54,3.55,3.55,0,0,0-3.54-3.54Zm0,0"
        transform="translate(-9.79 -23.64)" style="fill:#d15241" />
    <path
        d="M332.64,78.29a1.89,1.89,0,0,0-1.89,1.89V94.94a1.9,1.9,0,0,0,3.79,0V80.18a1.9,1.9,0,0,0-1.9-1.89Zm0,0"
        transform="translate(-9.79 -23.64)" style="fill:#4d5c7d" />
    <path d="M349.49,91.6A3.54,3.54,0,1,0,353,95.14a3.54,3.54,0,0,0-3.54-3.54Zm0,0"
        transform="translate(-9.79 -23.64)" style="fill:#d15241" />
    <path
        d="M349.49,78.29a1.9,1.9,0,0,0-1.9,1.89V94.94a1.9,1.9,0,0,0,3.79,0V80.18a1.89,1.89,0,0,0-1.89-1.89Zm0,0"
        transform="translate(-9.79 -23.64)" style="fill:#4d5c7d" />
    <path d="M366.33,91.6a3.54,3.54,0,1,0,3.54,3.54,3.55,3.55,0,0,0-3.54-3.54Zm0,0"
        transform="translate(-9.79 -23.64)" style="fill:#d15241" />
    <path
        d="M366.33,78.29a1.89,1.89,0,0,0-1.89,1.89V94.94a1.9,1.9,0,0,0,3.79,0V80.18a1.9,1.9,0,0,0-1.9-1.89Zm0,0"
        transform="translate(-9.79 -23.64)" style="fill:#4d5c7d" />
    <path d="M383.18,91.6a3.54,3.54,0,1,0,3.53,3.54,3.54,3.54,0,0,0-3.53-3.54Zm0,0"
        transform="translate(-9.79 -23.64)" style="fill:#d15241" />
    <path
        d="M383.18,78.29a1.9,1.9,0,0,0-1.9,1.89V94.94a1.9,1.9,0,0,0,3.79,0V80.18a1.89,1.89,0,0,0-1.89-1.89Zm0,0"
        transform="translate(-9.79 -23.64)" style="fill:#4d5c7d" />
    <rect x="337.15" y="97.87" width="7.65" height="7.65" style="fill:#e56353" />
    <rect x="351.44" y="97.87" width="7.65" height="7.65" style="fill:#e56353" />
    <rect x="365.74" y="97.87" width="7.65" height="7.65" style="fill:#e56353" />
    <rect x="322.86" y="109.87" width="7.65" height="7.65" style="fill:#e56353" />
    <rect x="337.15" y="109.87" width="7.65" height="7.65" style="fill:#e56353" />
    <rect x="351.44" y="109.87" width="7.65" height="7.65" style="fill:#e56353" />
    <rect x="365.74" y="109.87" width="7.65" height="7.65" style="fill:#e56353" />
    <rect x="322.86" y="121.87" width="7.65" height="7.65" style="fill:#e56353" />
    <rect x="337.15" y="121.87" width="7.65" height="7.65" style="fill:#e56353" />
    <rect x="351.44" y="121.87" width="7.65" height="7.65" style="fill:#e56353" />
</svg>