<?xml version="1.0" encoding="utf-8"?>
<!-- Generator: Adobe Illustrator 24.1.0, SVG Export Plug-In . SVG Version: 6.00 Build 0)  -->
<svg version="1.1" id="Capa_1" xmlns="http://www.w3.org/2000/svg" xmlns:xlink="http://www.w3.org/1999/xlink" x="0px" y="0px"
	 viewBox="0 0 512 512" style="enable-background:new 0 0 512 512;" xml:space="preserve">
<style type="text/css">
	.st0{fill:#303C42;}
	.st1{fill:#5C6671;}
	.st2{fill:url(#SVGCleanerId_0_3_);}
	.st3{fill:url(#SVGID_1_);}
	.st4{fill:#3971B6;}
	.st5{fill:#FFFFFF;}
	.st6{fill:#D4FAFF;}
</style>
<path class="st0" d="M426.7,21.3h-384C19.1,21.3,0,40.5,0,64v384c0,23.5,19.1,42.7,42.7,42.7h384c23.5,0,42.7-19.1,42.7-42.7V64
	C469.3,40.5,450.2,21.3,426.7,21.3z"/>
<g>
	<path id="SVGCleanerId_0" class="st1" d="M42.7,42.7h384c11.8,0,21.3,9.6,21.3,21.3v42.7H21.3V64C21.3,52.2,30.9,42.7,42.7,42.7z"
		/>
</g>
<g>
	
		<linearGradient id="SVGCleanerId_0_3_" gradientUnits="userSpaceOnUse" x1="-200.5755" y1="-90.5991" x2="-183.2967" y2="-82.5419" gradientTransform="matrix(21.3333 0 0 21.3333 4330.9946 1926.1652)">
		<stop  offset="0" style="stop-color:#FFFFFF;stop-opacity:0.2"/>
		<stop  offset="1" style="stop-color:#FFFFFF;stop-opacity:0"/>
	</linearGradient>
	<path id="SVGCleanerId_0_1_" class="st2" d="M42.7,42.7h384c11.8,0,21.3,9.6,21.3,21.3v42.7H21.3V64C21.3,52.2,30.9,42.7,42.7,42.7
		z"/>
</g>
<linearGradient id="SVGID_1_" gradientUnits="userSpaceOnUse" x1="-186.1179" y1="-76.185" x2="-180.4135" y2="-70.4765" gradientTransform="matrix(21.3333 0 0 21.3333 4330.9946 1926.1652)">
	<stop  offset="0" style="stop-color:#000000;stop-opacity:0.1"/>
	<stop  offset="1" style="stop-color:#000000;stop-opacity:0"/>
</linearGradient>
<path class="st3" d="M364.7,351.8l-53.3,10.7c-0.7,0.1-1.4,0.2-2.1,0.2c-2.8,0-5.5-1.1-7.5-3.1l109.8,109.8h15.1
	c11.8,0,21.3-9.6,21.3-21.3V271.1l-77.8,77.8C368.7,350.4,366.8,351.4,364.7,351.8z"/>
<path class="st4" d="M471.2,149.3c-0.6,0-1.2,0.2-1.8,0.2V64c0-23.5-19.1-42.7-42.7-42.7h-384C19.1,21.3,0,40.5,0,64v384
	c0,23.5,19.1,42.7,42.7,42.7h384c23.5,0,42.7-19.1,42.7-42.7V249.7l7.5-7.5c0,0,0,0,0,0s0,0,0,0L500,219c0,0,0,0,0,0
	c7.6-7.6,12-18.1,12-28.9C512,167.6,493.7,149.3,471.2,149.3z"/>
<g>
	<g>
		<path id="SVGCleanerId_0_10_" class="st5" d="M42.7,42.7h384c11.8,0,21.3,9.6,21.3,21.3v42.7H21.3V64
			C21.3,52.2,30.9,42.7,42.7,42.7z"/>
	</g>
</g>
<path class="st6" d="M426.7,469.3h-384c-11.8,0-21.3-9.6-21.3-21.3V128H448v320C448,459.8,438.4,469.3,426.7,469.3z"/>
<g>
	<g>
		<circle class="st4" cx="53.3" cy="74.7" r="10.7"/>
		<circle class="st4" cx="96" cy="74.7" r="10.7"/>
		<circle class="st4" cx="138.7" cy="74.7" r="10.7"/>
		<path class="st4" d="M352,234.7H117.3c-5.9,0-10.7-4.8-10.7-10.7c0-5.9,4.8-10.7,10.7-10.7H352c5.9,0,10.7,4.8,10.7,10.7
			S357.9,234.7,352,234.7z"/>
		<path class="st4" d="M330.6,298.7H117.3c-5.9,0-10.7-4.8-10.7-10.7s4.8-10.7,10.7-10.7h213.3c5.9,0,10.7,4.8,10.7,10.7
			S336.5,298.7,330.6,298.7z"/>
		<path class="st4" d="M245.3,362.7h-128c-5.9,0-10.7-4.8-10.7-10.7s4.8-10.7,10.7-10.7h128c5.9,0,10.7,4.8,10.7,10.7
			S251.2,362.7,245.3,362.7z"/>
		<path class="st4" d="M471.2,149.3c-10.8,0-21.3,4.4-28.9,12L312.5,291.1c-1.5,1.5-2.5,3.4-2.9,5.4l-10.7,53.4
			c-0.7,3.5,0.4,7.1,2.9,9.6c2,2,4.8,3.1,7.5,3.1c0.7,0,1.4-0.1,2.1-0.2l53.3-10.7c2.1-0.4,4-1.4,5.5-2.9l106.7-106.7c0,0,0,0,0,0
			s0,0,0,0L500,219c0,0,0,0,0,0c7.6-7.6,12-18.1,12-28.9C512,167.6,493.7,149.3,471.2,149.3z"/>
	</g>
</g>
<polygon class="st5" points="357.4,331.5 322.9,338.4 329.8,303.9 426.7,207.1 454.2,234.7 "/>
<path class="st5" d="M485,204l-15.6,15.6L441.7,192l15.6-15.6c3.6-3.6,8.6-5.7,13.8-5.7c10.8,0,19.5,8.8,19.5,19.5
	C490.7,195.3,488.6,200.3,485,204z"/>
</svg>
