
<?xml version="1.0" ?>
<svg xmlns:xlink="http://www.w3.org/1999/xlink" style="enable-background:new 0 0 512 512;" id="Layer_1"
    version="1.1" viewBox="0 0 512 512" x="0px" xmlns="http://www.w3.org/2000/svg"
    y="0px" xml:space="preserve">
<style type="text/css">
	.st0{fill:#5056ca;}
</style>
    <path class="st0" d="M437.5,236.4c14.5-10.2,24.3-27.4,24.3-46.6c0-31.4-25.5-57.1-57.1-57.1c-31.4,0-57.1,25.5-57.1,57.1
	c0,19.3,9.5,36.4,24.3,46.6c-12.6,4.3-24,11.2-33.8,19.7c-13.3-11.4-29-20-46.2-25.2c20.9-12.6,35-35.7,35-61.9
	c0-40-32.4-72.3-72.3-72.3c-40,0-72.3,32.4-72.3,72.3c0,26.2,14,49.2,35,61.9c-16.9,5.2-32.6,13.8-45.7,25
	c-9.8-8.6-20.9-15.2-33.3-19.3c14.5-10.2,24.3-27.4,24.3-46.6c0-31.4-25.5-57.1-57.1-57.1c-31.4,0-57.1,25.5-57.1,57.1
	c0,19.3,9.5,36.4,24.3,46.6c-39.3,13.6-67.3,50.7-67.3,94.5v6.4c0,0.2,0.2,0.5,0.5,0.5h120.9c-0.7,5.5-1.2,11.2-1.2,16.7v6.7
	c0,29,23.6,52.6,52.6,52.6h153.2c29,0,52.6-23.6,52.6-52.6v-6.7c0-5.7-0.5-11.2-1.2-16.7h122c0.2,0,0.5-0.2,0.5-0.5v-6.4
	C504.6,287.3,476.8,250,437.5,236.4z M363.5,189.8c0-22.8,18.6-41.2,41.2-41.2s41.2,18.6,41.2,41.2c0,22.4-18.1,40.7-40.4,41.2
	c-0.2,0-0.5,0-0.7,0s-0.5,0-0.7,0C381.6,230.5,363.5,212.4,363.5,189.8z M198.2,169.3c0-31.2,25.2-56.4,56.4-56.4
	s56.4,25.2,56.4,56.4c0,30-23.6,54.7-53.1,56.4c-1.2,0-2.1,0-3.3,0c-1.2,0-2.1,0-3.3,0C221.7,223.8,198.2,199.3,198.2,169.3z
	 M64.2,189.8c0-22.8,18.6-41.2,41.2-41.2s41.2,18.6,41.2,41.2c0,22.4-18.1,40.7-40.4,41.2c-0.2,0-0.5,0-0.7,0c-0.2,0-0.5,0-0.7,0
	C82.3,230.5,64.2,212.4,64.2,189.8z M129.7,322.1h-108c4.5-42.1,40-75.2,83.3-75.4c0.2,0,0.5,0,0.5,0c0.2,0,0.5,0,0.5,0
	c20.5,0,39.3,7.6,53.8,20C145.6,282.4,135.1,301.1,129.7,322.1z M368,361.6c0,20.2-16.4,36.6-36.6,36.6H178.2
	c-20.2,0-36.6-16.4-36.6-36.6v-6.7c0-61.4,49-111.6,109.9-113.2c1.2,0,2.4,0,3.3,0c1,0,2.4,0,3.3,0C319,243.3,368,293.5,368,354.9
	L368,361.6L368,361.6z M379.7,322.1c-5.5-20.9-15.7-39.5-30-55c14.5-12.6,33.5-20.2,54.2-20.5c0.2,0,0.5,0,0.5,0c0.2,0,0.5,0,0.5,0
	c43.1,0.2,78.7,33.3,83.3,75.4H379.7z" />
</svg>
