<?xml version="1.0" ?>
<svg xmlns:xlink="http://www.w3.org/1999/xlink" baseProfile="tiny" id="Layer_1" version="1.2"
    viewBox="0 0 595.3 841.9" x="0px" xmlns="http://www.w3.org/2000/svg" y="0px"
    xml:space="preserve">
<g>
	<path d="M59.1,30.2c-7,0-12.7,5.7-12.7,12.7v172.5c0,7,5.7,12.7,12.7,12.7h70.5v-12H59.1c-0.4,0-0.7-0.3-0.7-0.7V42.9
		c0-0.4,0.3-0.7,0.7-0.7h30.7v-12H59.1z" />
    <rect height="12" width="53.4" x="111.4" y="30.2" />
    <path
        d="M212.4,30.2h-26v12h26c0.4,0,0.7,0.3,0.7,0.7v51.2h12V42.9C225.1,35.9,219.4,30.2,212.4,30.2z" />
</g>
    <rect height="43.3" width="14.5" x="93.8" y="17" />
    <rect height="98.9" transform="matrix(6.123234e-17 -1 1 6.123234e-17 26.0426 216.1937)" width="14.5"
        x="113.8" y="45.6" />
    <rect height="72.8" transform="matrix(6.123234e-17 -1 1 6.123234e-17 -31.9771 248.174)" width="14.5"
        x="100.8" y="103.7" />
    <rect height="43.7" transform="matrix(6.123234e-17 -1 1 6.123234e-17 -89.352 273.7721)" width="14.5"
        x="84.9" y="159.7" />
    <rect height="43.3" width="14.5" x="168.8" y="17" />
    <rect height="72.8" transform="matrix(6.123234e-17 -1 1 6.123234e-17 -31.9771 248.174)" width="14.5"
        x="100.8" y="103.7" />
    <g>
	<path d="M207.5,240.7c-34.4,0-62.3-28-62.3-62.3c0-34.4,28-62.3,62.3-62.3c34.4,0,62.3,28,62.3,62.3
		C269.8,212.7,241.8,240.7,207.5,240.7z M207.5,128c-27.8,0-50.3,22.6-50.3,50.3s22.6,50.3,50.3,50.3s50.3-22.6,50.3-50.3
		S235.2,128,207.5,128z" />
</g>
    <polygon points="231.5,184.6 212.5,184.6 212.5,153 200.8,153 200.8,181.6 200.7,181.6 200.7,196.2 200.8,196.2 200.8,196.2
	212.5,196.2 212.5,196.2 231.5,196.2 " />
</svg>
