<?xml version="1.0" ?>
<svg xmlns:xlink="http://www.w3.org/1999/xlink" baseProfile="tiny" id="Layer_1" version="1.2"
    viewBox="0 0 297.6 420.9" x="0px" xmlns="http://www.w3.org/2000/svg" y="0px"
    xml:space="preserve">
<title></title>
    <path d="M157.2,141.1c33.1,1,61.8,31,61.4,63.2c0,0.8,0,1.6,0.2,2.4c0,2.6-0.2,5.4-3.8,5.3c-4.2,0-3.6-4.1-3.8-7.2
	V204c-4.4-34.1-20.3-50.3-54.9-55.5c-2.9-0.3-7.2,0.2-7.1-3.5C149.5,139.4,154.6,141.6,157.2,141.1z M201.5,202.7
	c0,1.5-1.1,2.7-2.6,2.7c0,0,0,0,0,0c-3.8,0.7-4.3-1.5-4.6-4c0-1-0.1-1.9-0.2-2.9c-3.7-20.7-11.1-28.4-32.4-33.1
	c-3.1-0.7-8-0.3-7.1-5c0.9-4.7,5.1-3.1,8.5-2.6c21.2,2.6,38.7,20.7,38.6,40.7C201.5,199.7,201.7,201.4,201.5,202.7z M183.9,200
	c-0.6,0.3-1.2,0.5-1.9,0.5c-1.1,0.1-2.2-0.3-2.9-1.1c-0.6-0.9-0.9-1.8-1-2.9c-0.2-7.9-6.4-14.4-14.3-14.9c-2.6-0.4-5.3-1.4-4-4.7
	c0.8-2.4,3.1-2.6,5.3-2.6c9.3-0.2,20.5,10.9,20.3,20.5C185.8,196.6,185.2,198.6,183.9,200L183.9,200z M219.1,259.8
	c-3.7,10-16.2,20.3-27,20.2c-2.5-0.4-4.9-1.1-7.2-2c-38.7-16.2-68.6-41.1-89-75.1c-4.8-7.9-8.9-16.2-12.4-24.8
	c-6.5-15.7,0.2-29,16.8-34.5c2.8-0.9,5.9-0.9,8.7,0c7.1,2.6,25,26.7,25.3,33.9c0.2,5.5-3.5,8.5-7.3,11c-4,2.1-6.4,6.3-6.2,10.8
	c0.2,2.4,0.8,4.7,1.8,6.8c6.8,14.8,19,26.5,34.1,32.6c5.5,2.5,10.9,2.2,14.7-3.4c6.7-10,15-9.3,24.2-3.3c4.4,3.1,9.3,6.2,13.5,9.6
	C215.1,246.3,222.6,250,219.1,259.8L219.1,259.8z" fill="#5056ca" />
</svg>
