<?xml version="1.0" ?>
<svg xmlns:xlink="http://www.w3.org/1999/xlink" style="enable-background:new 0 0 512 512;" id="Layer_1"
    version="1.1" viewBox="0 0 512 512" x="0px" xmlns="http://www.w3.org/2000/svg"
    y="0px" xml:space="preserve">
<style type="text/css">
	.st0{fill:#5056ca;}
</style>
    <g>
	<path class="st0" d="M257.7,15.8V5.2l-21,15.2l21,15.2v-8.3c127.9,1.2,231.4,105.6,231.4,233.7c0,128.9-104.8,233.7-233.9,233.7
		c-128.9,0-233.7-104.8-233.7-233.7H10.1c0,135.3,110,245.3,245.1,245.3c135.3,0,245.3-110,245.3-245.3
		C500.6,126.4,391.8,17,257.7,15.8L257.7,15.8z" />
        <path class="st0" d="M254.6,474.4v10.4l21-15.2l-21-15.2v8.5c-111-0.4-201.3-90.9-201.3-202.1c0-111.4,90.6-202.3,202.1-202.3
		s202.1,90.6,202.1,202.3H469C469,143,373.1,47.2,255.5,47.2S41.9,143,41.9,260.9C41.7,378.4,137.2,474,254.6,474.4L254.6,474.4z" />
        <path class="st0" d="M210.3,305.8c0.4,0.4,0.6,0.6,1,1l0,0c12.3,11.9,26.6,28.9,50.1,44.7c49.5,33.1,87.5,23.9,109.8,11.6
		c38.7-21.2,55.9-66.7,55.9-102.3c0-94.8-77.1-171.7-171.7-171.7c-94.8,0-171.7,77.1-171.7,171.7c0,94.8,77.1,171.7,171.7,171.7
		c5.8,0,10.6-4.8,10.6-10.6c0-5.8-4.8-10.6-10.6-10.6c-83,0-150.5-67.6-150.5-150.5c0-83.2,67.6-150.5,150.5-150.5
		S406,177.9,406,260.9c0,34.7-18.5,69-44.9,83.6c-9.6,5.4-20,7.9-31.2,8.1c6.7-4,12.5-9.4,16.8-16c0.8-1.2,1.9-2.3,2.5-3.7
		c3.5-8.3,3.7-17.7,5.8-26.4c2.5-11.2-49.1-33.1-53.4-19.1c-1.7,5.2-4.2,21.6-7.3,25.8c-2.9,4-10,2.1-14.6-1.7
		c-11.6-10-24.7-24.7-36.4-36.4c-0.2-0.4-0.6-0.6-1-1c-0.2-0.2-0.6-0.6-0.8-1c-11.6-11.4-26.4-24.5-36.4-36.4
		c-3.7-4.6-5.6-11.6-1.7-14.6c4.2-3.3,20.6-5.8,25.8-7.3c13.9-4.6-7.9-56.1-19.1-53.4c-8.7,2.1-18.1,2.3-26.4,5.8
		c-1.5,0.6-2.5,1.7-3.7,2.5c-29.3,18.7-33.3,64-4.6,97.7c11,12.9,22.5,25.4,34.1,37.6l0,0C209.7,305.2,210.1,305.6,210.3,305.8
		L210.3,305.8z" />
</g>
</svg>
