<?xml version="1.0" ?>
<svg xmlns:xlink="http://www.w3.org/1999/xlink" style="enable-background:new 0 0 512 512;" id="Layer_1"
    version="1.1" viewBox="0 0 512 512" x="0px" xmlns="http://www.w3.org/2000/svg"
    y="0px" xml:space="preserve">
<style type="text/css">
	.st0{fill:#5056ca;}
</style>
    <g>
	<path class="st0" d="M394.3,285.8c-59.4,0-107.8,48.3-107.8,107.8s48.3,107.8,107.8,107.8S502.1,453,502.1,393.5
		C502.1,334.1,453.7,285.8,394.3,285.8L394.3,285.8z M394.3,480.2c-47.8,0-86.7-38.8-86.7-86.7s38.8-86.7,86.7-86.7
		s86.7,38.8,86.7,86.7C481.2,441.1,442.2,480.2,394.3,480.2L394.3,480.2z" />
        <path class="st0" d="M427.2,340.3c-4.9-3.1-11.3-1.5-14.4,3.3l-54.5,88.5c-3.1,4.9-1.5,11.3,3.3,14.4c1.8,1,3.6,1.5,5.4,1.5
		c3.6,0,6.9-1.8,9-4.9l54.5-88.5C433.7,349.8,432.1,343.4,427.2,340.3L427.2,340.3z" />
</g>
    <path class="st0" d="M94.7,427.2l-1.5-1c-8.7-5.4-14.7-13.9-17-23.9c-2.3-10-0.5-20.3,4.9-29.1c3.1-4.9,1.5-11.3-3.3-14.4
	s-11.3-1.5-14.4,3.3c-8.5,13.4-11.1,29.3-7.5,45c3.6,15.4,12.9,28.5,26.5,37l1.5,1c1.8,1,3.6,1.5,5.7,1.5c3.6,0,6.9-1.8,9-4.9
	C101.1,436.8,99.9,430.3,94.7,427.2L94.7,427.2z" />
    <g>
	<path class="st0" d="M308.9,81.6l1.5,1c18,11.3,23.4,35,12.1,53c-3.1,4.9-1.5,11.3,3.3,14.4c1.8,1,3.6,1.5,5.7,1.5
		c3.6,0,6.9-1.8,9-4.9c17.5-27.8,9-64.6-18.8-82l-1.5-1c-4.9-3.1-11.3-1.5-14.4,3.3C302.5,72.1,304.1,78.5,308.9,81.6L308.9,81.6z" />
        <path class="st0" d="M290.9,310L290.9,310l87.4-139.6c14.7-23.7,19.5-51.4,13.1-78.4c-6.2-27-22.6-50.1-46.3-64.8l-1.5-1
		c-16.5-10.3-35.7-15.9-55-15.9c-36.3,0-69.2,18.3-88.2,48.9L25.5,338.3C10.9,361.9,6,389.7,12.4,416.7c6.2,27,22.6,50.1,46.3,64.8
		l1.5,1c16.7,10.3,35.7,15.9,55,15.9c36.3,0,69.2-18.3,88.2-48.9L290.9,310z M218.2,70c15.2-24.4,41.7-39.1,70.5-39.1
		c15.4,0,30.9,4.4,44,12.6l1.5,1c18.8,11.8,31.9,30.1,36.8,51.7c4.9,21.6,1.3,44-10.5,62.8l-81.8,130.9l-142.5-89.2L218.2,70z
		 M185.8,438.6c-15.2,24.4-41.7,39.1-70.5,39.1c-15.4,0-30.9-4.4-44-12.6l-1.5-1C51,452.2,37.9,433.9,33,412.3
		c-4.9-21.6-1.3-44,10.5-62.8l81.5-130.9l142.5,89.2L185.8,438.6z" />
</g>
</svg>
