<?xml version="1.0" ?><!-- Generator: Adobe Illustrator 22.1.0, SVG Export Plug-In . SVG Version: 6.00 Build 0)  -->
<svg xmlns:xlink="http://www.w3.org/1999/xlink" style="enable-background:new 0 0 512 512;" fill="#5056ca" id="Layer_1"
    version="1.1"  viewBox="0 0 512 512"   x="0px" xmlns="http://www.w3.org/2000/svg"
    y="0px" xml:space="preserve">

    <g>
	<g>
		<path class="st0" d="M450.4,108.8L450.4,108.8c-0.4-1-1-1.9-1.8-2.7L346.9,4.4c-0.8-0.8-1.7-1.4-2.7-1.8l0,0
			c-1-0.5-2.2-0.7-3.3-0.7h-271c-4.7,0-8.5,3.8-8.5,8.5v491.2c0,4.7,3.8,8.5,8.5,8.5h372.7c4.7,0,8.5-3.8,8.5-8.5V112
			C451,110.9,450.8,109.8,450.4,108.8z M349.4,30.8l72.7,72.7h-72.7V30.8z M78.4,493.1V18.8h254.1V112c0,4.7,3.8,8.5,8.5,8.5h93.2
			v372.7L78.4,493.1L78.4,493.1z" />
        <path class="st0" d="M112.2,128.9h25.4v25.4c0,4.7,3.8,8.5,8.5,8.5H180c4.7,0,8.5-3.8,8.5-8.5v-25.4h25.4c4.7,0,8.5-3.8,8.5-8.5
			V86.6c0-4.7-3.8-8.5-8.5-8.5h-25.4V52.7c0-4.7-3.8-8.5-8.5-8.5h-33.9c-4.7,0-8.5,3.8-8.5,8.5v25.4h-25.4c-4.7,0-8.5,3.8-8.5,8.5
			v33.9C103.8,125.2,107.6,128.9,112.2,128.9z M120.7,95.1h25.4c4.7,0,8.5-3.8,8.5-8.5V61.2h16.9v25.4c0,4.7,3.8,8.5,8.5,8.5h25.4
			V112H180c-4.7,0-8.5,3.8-8.5,8.5v25.4h-16.9v-25.4c0-4.7-3.8-8.5-8.5-8.5h-25.4V95.1z" />
        <path class="st0" d="M400.2,247.5h-288c-4.7,0-8.5,3.8-8.5,8.5c0,4.7,3.8,8.5,8.5,8.5h288c4.7,0,8.5-3.8,8.5-8.5
			C408.7,251.3,404.9,247.5,400.2,247.5z" />
        <path class="st0" d="M400.2,298.3h-288c-4.7,0-8.5,3.8-8.5,8.5c0,4.7,3.8,8.5,8.5,8.5h288c4.7,0,8.5-3.8,8.5-8.5
			C408.7,302.1,404.9,298.3,400.2,298.3z" />
        <path class="st0" d="M400.2,349.2h-288c-4.7,0-8.5,3.8-8.5,8.5s3.8,8.5,8.5,8.5h288c4.7,0,8.5-3.8,8.5-8.5
			S404.9,349.2,400.2,349.2z" />
        <path class="st0" d="M400.2,400h-288c-4.7,0-8.5,3.8-8.5,8.5c0,4.7,3.8,8.5,8.5,8.5h288c4.7,0,8.5-3.8,8.5-8.5
			C408.7,403.8,404.9,400,400.2,400z" />
	</g>
</g>
</svg>
