<?xml version="1.0" encoding="utf-8"?><!-- Generator: Adobe Illustrator 22.1.0, SVG Export Plug-In . SVG Version: 6.00 Build 0)  -->
<svg xmlns:xlink="http://www.w3.org/1999/xlink" style="enable-background:new 0 0 512 512;" id="Layer_1"
    version="1.1" viewBox="0 0 512 512" x="0px" xmlns="http://www.w3.org/2000/svg"
    y="0px" xml:space="preserve">
<style type="text/css">
	.st0{fill:#5056ca;}
</style>
    <path class="st0" d="M357.4,306.6h-7.7c-2,0-4,0.9-5.4,2.4l-71.1,75.3L202.2,309c-1.4-1.5-3.4-2.4-5.4-2.4h-7.7
	c-64.7,0.9-119.3,45.9-138.2,107.9c3.8,2.1,8.5,4.2,14.2,6.1c12.6-42.6,44.1-77.3,85.8-91.4v46.5c-21.6,2.1-38.2,21.3-38.3,44.3
	v40.5c0,4.5,3.4,8.1,7.7,8.1h15.3c4.2,0,7.7-3.6,7.7-8.1s-3.4-8.1-7.7-8.1h-7.7V420c0-15.7,12-28.4,26.8-28.4h7.7
	c14.8,0,26.8,12.7,26.8,28.4v32.4h-7.7c-4.2,0-7.7,3.6-7.7,8.1s3.4,8.1,7.7,8.1h15.3c4.2,0,7.7-3.6,7.7-8.1V420
	c0-23-16.6-42.2-38.3-44.3v-50.5c7.6-1.5,15.3-2.3,23-2.4h4.5l72,76.3v85.7c0,4.5,3.4,8.1,7.7,8.1s7.7-3.6,7.7-8.1v-85.7l72-76.3
	h4.5c7.7,0,15.4,0.8,23,2.4V405c-14.9,4.1-24.7,19.3-22.7,35.5s15,28.3,30.4,28.3c15.4,0,28.4-12.1,30.4-28.3s-7.8-31.4-22.7-35.5
	v-75.8c54.1,18.4,91,71.2,91.8,131.4v24.3c0,4.5,3.4,8.1,7.7,8.1s7.7-3.6,7.7-8.1v-24.3C501.7,376,437.3,307.7,357.4,306.6z
	 M403.3,436.2c0,8.9-6.9,16.2-15.3,16.2c-8.4,0-15.3-7.3-15.3-16.2c0-8.9,6.9-16.2,15.3-16.2C396.5,420,403.3,427.3,403.3,436.2z" />
    <path class="st0" d="M173.8,193.2h0.5c3.4,34,27.6,62.7,53.2,79.9c-0.1,0.4-0.2,0.8-0.2,1.1v32.4c0,4.5,3.4,8.1,7.7,8.1
	c4.2,0,7.7-3.6,7.7-8.1v-24.8c9.5,5.1,19.9,8,30.6,8.6c10.7-0.6,21.1-3.5,30.6-8.6v24.8c0,4.5,3.4,8.1,7.7,8.1s7.7-3.6,7.7-8.1
	v-32.4c0-0.4-0.1-0.8-0.2-1.1c25.6-17.2,49.8-45.9,53.2-79.9h0.5c15,0,27.9-11.5,30.2-27.3c2.3-15.7-6.5-30.9-20.8-35.8
	c6.4-26.8,9-38.2,5.7-52.3c-8.3-35.3-50.3-70.9-114.5-70.9S167.1,42.6,158.7,77.8c-3.3,14.1-0.7,25.5,5.7,52.3
	c-14.3,4.9-23.2,20.1-20.8,35.8C145.9,181.7,158.8,193.2,173.8,193.2L173.8,193.2z M273.3,274.2c-27.7,0-84.2-41.2-84.2-89.1v-43.3
	c43.1-8.1,84.2-25.3,120.8-50.6c9.4,13.2,29,38.2,47.5,48.6v45.4C357.4,233,301,274.2,273.3,274.2L273.3,274.2z M388,160.8
	c0,8.9-6.9,16.2-15.3,16.2v-32.4C381.2,144.6,388,151.9,388,160.8L388,160.8z M173.6,81.8c6.7-28.4,43.9-58.7,99.7-58.7
	s93,30.2,99.7,58.7c2.4,10.3,0.2,19.8-5.9,45.2c-14.1-6.4-36.3-32.5-49.4-51.8c-1.2-1.8-3.1-3-5.2-3.3c-2.1-0.3-4.2,0.4-5.9,1.8
	c-0.4,0.4-43.4,37.2-127.2,53.6C173.4,101.6,171.1,92.1,173.6,81.8L173.6,81.8z M173.8,144.6V177c-8.5,0-15.3-7.3-15.3-16.2
	C158.5,151.9,165.3,144.6,173.8,144.6L173.8,144.6z" />
    <path class="st0" d="M334.5,160.8c0,8.9-6.9,16.2-15.3,16.2s-15.3-7.3-15.3-16.2s6.9-16.2,15.3-16.2S334.5,151.9,334.5,160.8
	L334.5,160.8z" />
    <path class="st0" d="M242.7,160.8c0,8.9-6.9,16.2-15.3,16.2c-8.4,0-15.3-7.3-15.3-16.2s6.9-16.2,15.3-16.2
	C235.8,144.6,242.7,151.9,242.7,160.8L242.7,160.8z" />
    <path class="st0" d="M291.4,219.3c-10.8,8.4-25.5,8.4-36.3,0c-2.1-1.9-5.1-2.5-7.7-1.5c-2.6,1-4.5,3.5-4.9,6.4
	c-0.4,2.9,0.8,5.9,3,7.6c16.4,13.3,39.1,13.3,55.5,0c2.2-1.8,3.4-4.7,3-7.6c-0.4-2.9-2.3-5.4-4.9-6.4
	C296.5,216.8,293.5,217.4,291.4,219.3L291.4,219.3z" />
    <g>
	<path class="st0" d="M90.9,462c1.6-1.6,2.1-4,1.4-6.2c-0.7-2.2-2.4-3.8-4.6-4.1l-19.3-3c-0.8-0.1-1.5-0.7-1.9-1.5L58,428.8
		c-1-2.1-2.9-3.4-5.1-3.4c-2.2,0-4.1,1.3-5.1,3.4l-8.6,18.5c-0.4,0.8-1.1,1.3-1.9,1.5l-19.3,3c-2.2,0.3-3.9,1.9-4.6,4.1
		c-0.7,2.2-0.1,4.6,1.4,6.2l13.9,14.4c0.6,0.6,0.9,1.5,0.7,2.4L26.2,499c-0.4,2.3,0.5,4.5,2.3,5.9c1.8,1.4,4.1,1.5,6,0.5l17.2-9.6
		c0.7-0.4,1.6-0.4,2.3,0l17.2,9.6c0.8,0.5,1.8,0.7,2.7,0.7c1.2,0,2.3-0.4,3.4-1.2c1.8-1.4,2.6-3.6,2.3-5.9l-3.3-20.3
		c-0.1-0.9,0.1-1.7,0.7-2.4L90.9,462z M73.1,479.3l3.3,20.3c0.2,1-0.2,2-1,2.6c-0.8,0.6-1.8,0.7-2.7,0.2l-17.2-9.6
		c-0.8-0.5-1.7-0.7-2.7-0.7c-0.9,0-1.8,0.2-2.7,0.7L33,502.4c-0.9,0.5-1.9,0.4-2.7-0.2c-0.8-0.6-1.2-1.6-1-2.6l3.3-20.3
		c0.3-2-0.3-4-1.6-5.4L17,459.6c-0.7-0.7-0.9-1.8-0.6-2.7c0.3-1,1.1-1.7,2-1.8l19.3-3c1.9-0.3,3.5-1.5,4.3-3.3l8.6-18.5
		c0.4-0.9,1.3-1.5,2.3-1.5c1,0,1.8,0.6,2.3,1.5l8.6,18.5c0.8,1.8,2.4,3,4.3,3.3l19.3,3c1,0.1,1.7,0.8,2,1.8c0.3,1,0.1,2-0.6,2.7
		l-13.9,14.4C73.4,475.3,72.8,477.3,73.1,479.3L73.1,479.3z" />
        <path class="st0" d="M31.8,508.1c-1.6,0-3.1-0.5-4.5-1.6c-2.4-1.8-3.5-4.8-3-7.9l3.3-20.3c0-0.2,0-0.4-0.2-0.6l-13.9-14.4
		c-2.1-2.2-2.8-5.3-1.9-8.3c0.9-3,3.3-5.1,6.2-5.5l19.3-3c0.2,0,0.4-0.2,0.5-0.4l8.6-18.5c1.3-2.8,3.9-4.5,6.8-4.5
		c2.9,0,5.5,1.7,6.8,4.5l8.6,18.5c0.1,0.2,0.3,0.3,0.4,0.4l19.3,3c2.9,0.4,5.2,2.5,6.2,5.5c0.9,2.9,0.2,6.1-1.9,8.3l-13.9,14.4
		c-0.2,0.2-0.2,0.4-0.2,0.6l3.3,20.3c0.5,3-0.7,6.1-3,7.9c-2.3,1.8-5.5,2-8,0.6l-17.2-9.6c-0.2-0.1-0.4-0.1-0.6,0l-17.2,9.6
		C34.2,507.8,33,508.1,31.8,508.1z M52.9,430.8c-0.3,0-0.4,0.1-0.6,0.4l-8.6,18.5c-1.1,2.4-3.3,4-5.7,4.4l-19.3,3
		c-0.2,0-0.4,0.2-0.5,0.4c-0.1,0.3,0,0.5,0.2,0.7l13.9,14.4c1.8,1.9,2.6,4.5,2.2,7.2L31.2,500c0,0.3,0,0.5,0.3,0.6
		c0.2,0.1,0.4,0.2,0.6,0l17.2-9.6c2.2-1.2,4.9-1.2,7.1,0l17.2,9.6c0.2,0.1,0.4,0.1,0.6,0c0.2-0.2,0.3-0.4,0.2-0.6l-3.3-20.3
		c-0.4-2.6,0.4-5.3,2.2-7.1l13.9-14.4c0.2-0.2,0.2-0.4,0.1-0.7c-0.1-0.3-0.2-0.4-0.5-0.4l-19.3-3c-2.5-0.4-4.6-2-5.7-4.4l-8.6-18.5
		C53.3,430.9,53.1,430.8,52.9,430.8z" />
</g>
</svg>
