<?xml version="1.0" ?>
<svg data-name="Layer 1" id="Layer_1" viewBox="0 0 233.74 224.66"
    xmlns="http://www.w3.org/2000/svg">
    <defs>
        <style>.cls-1{fill:#5056ca;}</style>
    </defs>
    <title>feedback-icon</title>
    <path class="cls-1"
        d="M177.68,241.66a5.35,5.35,0,0,1-5.35-5.35V220.26H115.79a16,16,0,0,1-16-16V188.16h10.69v16.05a5.35,5.35,0,0,0,5.35,5.35h61.88a5.35,5.35,0,0,1,5.35,5.35v8.48l12.27-12.26a5.31,5.31,0,0,1,3.78-1.57H264a5.35,5.35,0,0,0,5.35-5.35V75.84A5.35,5.35,0,0,0,264,70.49H237.21V59.79H264A16,16,0,0,1,280,75.84V204.21a16,16,0,0,1-16.05,16H201.28l-19.82,19.83a5.39,5.39,0,0,1-3.78,1.57Z"
        transform="translate(-46.26 -17)" />
    <path class="cls-1"
        d="M129.54,198.86a5.34,5.34,0,0,1-5.35-5.34V177.47H62.31a16,16,0,0,1-16.05-16.05V33.05A16,16,0,0,1,62.31,17H220.47a16,16,0,0,1,16.05,16V161.42a16.06,16.06,0,0,1-16.05,16.05H153.15L133.32,197.3a5.36,5.36,0,0,1-3.78,1.56ZM62.3,27.7A5.35,5.35,0,0,0,57,33.05V161.42a5.34,5.34,0,0,0,5.34,5.35h67.23a5.35,5.35,0,0,1,5.35,5.35v8.48l12.27-12.26a5.35,5.35,0,0,1,3.78-1.57h69.54a5.35,5.35,0,0,0,5.34-5.35V33.05a5.34,5.34,0,0,0-5.34-5.35Z"
        transform="translate(-46.26 -17)" />
    <path class="cls-1" d="M73,59.79h58.84v10.7H73Z" transform="translate(-46.26 -17)" />
    <path class="cls-1" d="M73,91.89H209.77v10.69H73Z" transform="translate(-46.26 -17)" />
    <path class="cls-1" d="M73,124H209.77v10.7H73Z" transform="translate(-46.26 -17)" />
    <path class="cls-1" d="M199.07,59.79h10.7v10.7h-10.7Z" transform="translate(-46.26 -17)" />
    <path class="cls-1" d="M177.68,59.79h10.69v10.7H177.68Z" transform="translate(-46.26 -17)" />
</svg>