<?xml version="1.0" ?><!-- Generator: Adobe Illustrator 22.1.0, SVG Export Plug-In . SVG Version: 6.00 Build 0)  -->
<svg xmlns:xlink="http://www.w3.org/1999/xlink" baseProfile="tiny" id="Layer_1" version="1.2"
    viewBox="0 0 512 512" x="0px" xmlns="http://www.w3.org/2000/svg" y="0px" xml:space="preserve">
<path d="M255.5,11.1c-135,0-244.4,109.4-244.4,244.4c0,70.6,30,134.2,77.9,178.9c38.3-33.1,104.2-36,117.1-70.5
	c0.6-6.2,0.8-9.8,0.9-12.8c-43.2-4.7-73.4-15.1-73.5-27.3c0,0,0,0,0,0s0,0,0,0c0,0,0,0,0-0.1c0,0,0.1,0,0.1,0
	c35.7-38-33.6-239.1,123-251c18.2,0,30.9,5.5,38.2,11.6c115.6-4.3,53.5,208.7,86.8,238.7c0,0.2,0,0.7,0.1,0.7
	c0,12.4-31.2,23.1-75.7,27.7c0.2,4.9,0.3,9.6,0.6,12.6c12.8,34.4,77.8,37.4,116.1,70c47.6-44.6,77.3-108,77.3-178.4
	C499.9,120.5,390.5,11.1,255.5,11.1z" fill="#5056ca" />
</svg>
