<?xml version="1.0" ?>

<!-- Generator: Adobe Illustrator 22.1.0, SVG Export Plug-In . SVG Version: 6.00 Build 0)  -->
<svg xmlns:xlink="http://www.w3.org/1999/xlink" baseProfile="tiny" id="Layer_1" fill="#5056ca" version="1.2"
    viewBox="0 0 595.3 841.9" x="0px" xmlns="http://www.w3.org/2000/svg" y="0px"
    xml:space="preserve">
<g>
	<polygon
        points="166.8,294 151.9,294 151.9,421.9 166.8,421.9 166.8,395.9 276.8,395.9 276.8,369.1 166.8,369.1 	" />
    <path d="M218,359.4c1.3-1.3,59.3,0,59.3,0v-27.6h-28.6C227.2,331.8,218,359.4,218,359.4z" />
    <polygon points="266.1,288.3 285.5,288.3 285.5,268.4 305.5,268.4 305.5,249 285.5,249 285.5,229 266.1,229 266.1,249 246.2,249
		246.2,268.4 266.1,268.4 	" />
    <path d="M371.4,332.6h-86v62.9h98v27.3h13.4v-62.4C396.8,360.3,400.5,335.3,371.4,332.6z" />
    <ellipse cx="200.8" cy="333" rx="20.3"
        ry="20.3" transform="matrix(0.7071 -0.7071 0.7071 0.7071 -176.6747 239.5223)" />
</g>
</svg>
