<?xml version="1.0" encoding="utf-8"?>
<!-- Generator: Adobe Illustrator 24.1.0, SVG Export Plug-In . SVG Version: 6.00 Build 0)  -->
<svg version="1.1" id="Layer_1" xmlns="http://www.w3.org/2000/svg" xmlns:xlink="http://www.w3.org/1999/xlink" x="0px" y="0px"
	 viewBox="0 0 130 130" style="enable-background:new 0 0 130 130;" xml:space="preserve">
<style type="text/css">
	.st0{fill:#EAEAE9;}
	.st1{fill:#45BA8E;}
	.st2{opacity:0.37;fill:#EAEAE9;enable-background:new    ;}
	.st3{opacity:0.24;fill:#595F70;enable-background:new    ;}
	.st4{opacity:0.35;fill:#595F70;enable-background:new    ;}
	.st5{fill:#353949;}
	.st6{opacity:0.38;fill:#FFFFFF;enable-background:new    ;}
	.st7{fill:#70788E;}
	.st8{opacity:0.29;fill:#353F60;enable-background:new    ;}
	.st9{fill:#595F70;}
</style>
<path class="st0" d="M98.9,91.1H41.7c-3.4,0-6.2,2.8-6.2,6.2v0.7c0,3.4,2.8,6.2,6.2,6.2h57.2c3.4,0,6.2-2.8,6.2-6.2v-0.7
	C105.1,93.8,102.3,91.1,98.9,91.1z"/>
<circle class="st1" cx="67.3" cy="68" r="14.3"/>
<ellipse transform="matrix(0.567 -0.8237 0.8237 0.567 -26.5311 95.7075)" class="st2" cx="77.8" cy="73.1" rx="5.2" ry="2.6"/>
<path class="st0" d="M43,30.4L32,17.9c-0.5-0.5-1.2-0.6-1.8-0.1l-8.4,7.4c-0.5,0.5-0.6,1.2-0.1,1.8l11,12.4"/>
<path class="st3" d="M23.7,25.8l8.4-7.4c0.5-0.5,1.3-0.4,1.8,0.1l0.8,1L27,26.4c-0.5,0.5-0.6,1.2-0.1,1.8l9.3,10.5L34.6,40l-11-12.4
	C23.2,27,23.2,26.3,23.7,25.8z"/>
<rect x="45.5" y="93.9" class="st4" width="58.3" height="1.6"/>
<path class="st5" d="M31.5,38.7c0.8,0,1.5-0.7,1.5-1.5c0-0.4-0.1-0.7-0.4-1L21.8,23.9l8-7.1l10.8,12.3c0.6,0.6,1.5,0.7,2.1,0.1
	s0.7-1.5,0.1-2.1l-11-12.4c-0.5-0.5-1.2-0.9-1.9-0.9c-0.7-0.1-1.5,0.2-2,0.7l-8.4,7.4c-1.1,1-1.2,2.7-0.2,3.9l11,12.4
	C30.6,38.5,31.1,38.7,31.5,38.7z"/>
<path class="st0" d="M29.9,9.2L13.4,23.8c-0.8,0.7-0.9,2-0.2,2.8l2.5,2.8c0.7,0.8,2,0.9,2.8,0.2L35.1,15c0.8-0.7,0.9-2,0.2-2.8
	l-2.5-2.8C32,8.6,30.7,8.5,29.9,9.2z"/>
<path class="st3" d="M13.4,23.6L14,23l2.3,2.6c0.7,0.8,2,0.9,2.8,0.2l15.9-14l0.2,0.2c0.7,0.8,0.7,2.1-0.2,2.8L18.5,29.5
	c-0.8,0.7-2.1,0.7-2.8-0.2l-2.5-2.8C12.4,25.7,12.5,24.4,13.4,23.6C13.3,23.6,13.3,23.6,13.4,23.6z"/>
<rect x="18" y="17.1" transform="matrix(0.7494 -0.6621 0.6621 0.7494 -7.8727 20.6825)" class="st6" width="10.9" height="7.4"/>
<rect x="29.1" y="10.4" transform="matrix(0.7494 -0.6621 0.6621 0.7494 -1.7878 23.551)" class="st6" width="2.2" height="7.4"/>
<path class="st5" d="M17.6,31.6c0.9,0,1.7-0.3,2.3-0.9l16.6-14.6c1.4-1.3,1.6-3.5,0.3-4.9l-2.5-2.8C33,6.9,30.8,6.7,29.4,8
	L12.8,22.6c-1.4,1.3-1.6,3.5-0.3,4.9l2.5,2.8c0.6,0.7,1.5,1.1,2.4,1.2L17.6,31.6z M31.7,10.1c0.1,0,0.3,0.1,0.4,0.2l2.5,2.8
	c0.2,0.2,0.2,0.5,0,0.7L18,28.5l0,0c-0.2,0.2-0.5,0.2-0.7,0l-2.5-2.8c-0.2-0.2-0.2-0.5,0-0.7l16.5-14.7
	C31.4,10.2,31.6,10.1,31.7,10.1z"/>
<path class="st0" d="M43.2,104.5c-15.4,0-27.9-12.5-27.9-27.9c0-15.4,12.5-27.9,27.9-27.9c0,0,0,0,0,0L46.6,61
	c-8.6,0-15.7,7-15.7,15.7s7,15.7,15.7,15.7L43.2,104.5z"/>
<path class="st6" d="M42.7,48.9l0.7,2.6c-14,0.3-25,11.8-24.8,25.8c0.3,13.6,11.2,24.5,24.8,24.8l-0.7,2.6
	c-15.4,0-27.9-12.5-27.9-27.9C14.8,61.3,27.3,48.9,42.7,48.9C42.7,48.8,42.7,48.8,42.7,48.9L42.7,48.9z"/>
<path class="st4" d="M28,76.7c0-10,7.8-18.2,17.8-18.7l0.8,3c-8.6,0-15.7,7-15.7,15.7s7,15.7,15.7,15.7l-0.9,3.2
	C35.7,94.9,28,86.7,28,76.7z"/>
<path class="st5" d="M43.3,106c0.8,0,1.5-0.7,1.5-1.5s-0.7-1.5-1.5-1.5c-14.6,0-26.4-11.8-26.4-26.4c0-14.6,11.8-26.4,26.4-26.4
	c0.8,0,1.5-0.7,1.5-1.5s-0.7-1.5-1.5-1.5c-16.2,0-29.4,13.2-29.4,29.4S27,106,43.3,106z"/>
<path class="st5" d="M46.6,93.8c0.8,0,1.5-0.7,1.5-1.5s-0.7-1.5-1.5-1.5c-7.8,0-14.2-6.3-14.2-14.2s6.3-14.2,14.2-14.2
	c0.8,0,1.5-0.7,1.5-1.5s-0.7-1.5-1.5-1.5c-9.5,0-17.2,7.7-17.2,17.2S37.1,93.8,46.6,93.8z"/>
<path class="st0" d="M41.5,23.2l-15.8,14c-0.8,0.7-0.9,2-0.2,2.8l31.8,36c0.7,0.8,2,0.9,2.8,0.2l15.8-14c0.8-0.7,0.9-2,0.2-2.8
	l-31.8-36C43.6,22.6,42.3,22.5,41.5,23.2z"/>
<path class="st3" d="M24.7,36.2l15.8-14c0.8-0.7,2.1-0.7,2.8,0.2l1.1,1.2L30.1,36.2c-0.8,0.7-0.9,2-0.2,2.8l30.8,34.9l-1.6,1.4
	c-0.8,0.7-2.1,0.7-2.8-0.2l-31.8-36C23.8,38.3,23.8,37,24.7,36.2C24.7,36.2,24.7,36.2,24.7,36.2z"/>
<rect x="44.6" y="23.6" transform="matrix(0.7494 -0.6621 0.6621 0.7494 -19.4291 44.6138)" class="st6" width="9.4" height="48.8"/>
<rect x="53.9" y="17.5" transform="matrix(0.7494 -0.6621 0.6621 0.7494 -14.0321 46.7761)" class="st6" width="1.7" height="48.8"/>
<path class="st5" d="M58.7,77.7c0.9,0,1.7-0.3,2.3-0.9l15.8-14c1.4-1.3,1.6-3.5,0.3-4.9l-31.9-36c-1.3-1.4-3.5-1.6-4.9-0.3l-15.8,14
	c-1.4,1.3-1.6,3.5-0.3,4.9l31.8,36c0.6,0.7,1.5,1.1,2.4,1.2L58.7,77.7z M42.7,23.7c0.1,0,0.3,0.1,0.4,0.2l31.9,36
	c0.2,0.2,0.2,0.5,0,0.7l-15.8,14l0,0c-0.1,0.1-0.2,0.1-0.4,0.1c-0.1,0-0.3-0.1-0.3-0.2l-31.8-36c-0.2-0.2-0.2-0.5,0-0.7l15.8-14
	C42.4,23.7,42.6,23.7,42.7,23.7L42.7,23.7z"/>
<path class="st0" d="M75.6,53L50.9,74.8c-0.8,0.7-0.9,2-0.2,2.8l4.7,5.3c0.7,0.8,2,0.9,2.8,0.2l24.7-21.8c0.8-0.7,0.9-2,0.2-2.8
	l-4.7-5.3C77.7,52.3,76.5,52.3,75.6,53z"/>
<path class="st3" d="M51.1,74.6l4.3,4.9c0.7,0.8,2,0.9,2.8,0.2L82.8,58l0.3,0.4c0.7,0.8,0.7,2.1-0.2,2.8L58.2,83
	c-0.8,0.7-2.1,0.7-2.8-0.2l-4.7-5.3c-0.7-0.8-0.7-2.1,0.2-2.8L51.1,74.6z"/>
<rect x="47.9" y="63.5" transform="matrix(0.7494 -0.6621 0.6621 0.7494 -26.39 59.2322)" class="st6" width="34.4" height="2"/>
<rect x="56.1" y="64.9" transform="matrix(0.7494 -0.6621 0.6621 0.7494 -30.245 59.854)" class="st6" width="15.6" height="10"/>
<rect x="72.9" y="55.4" transform="matrix(0.7494 -0.6621 0.6621 0.7494 -21.2862 64.5794)" class="st6" width="3.5" height="10"/>
<path class="st5" d="M56.9,85.1c0.9,0,1.7-0.3,2.3-0.9l24.7-21.8c1.4-1.3,1.6-3.5,0.3-4.9l-4.7-5.3c-1.3-1.4-3.5-1.6-4.9-0.3
	L49.9,73.7c-1.4,1.3-1.6,3.5-0.3,4.9l4.7,5.3c0.6,0.7,1.5,1.1,2.4,1.2L56.9,85.1z M77,54c0.1,0,0.3,0.1,0.4,0.2l4.7,5.3
	c0.2,0.2,0.2,0.5,0,0.7L57.2,82l0,0c-0.1,0.1-0.2,0.1-0.4,0.1c-0.1,0-0.3-0.1-0.3-0.2l-4.7-5.3c-0.2-0.2-0.2-0.5,0-0.7l24.8-21.9
	C76.7,54,76.8,54,77,54z"/>
<path class="st5" d="M78.5,106.3h20.8c4.3,0,7.8-3.5,7.8-7.8s-3.5-7.8-7.8-7.8H46.6c-0.8,0-1.5,0.7-1.5,1.5s0.7,1.5,1.5,1.5h52.7
	c2.6,0,4.8,2.1,4.8,4.8s-2.1,4.8-4.8,4.8H78.5c-0.8,0-1.5,0.7-1.5,1.5S77.7,106.3,78.5,106.3z"/>
<path class="st7" d="M65.3,108.9c-6.6,0-7.5-9-7.5-9c0-4.2-3.4-7.6-7.6-7.6s-7.6,3.4-7.6,7.6l0,0c0,0-0.6,9-4.4,9s-1.6,3.5-1.6,3.5"
	/>
<path class="st5" d="M36,110.4c6,0,8-6.8,8.2-10.4c0-3.4,2.7-6.1,6-6.1s6.1,2.7,6.1,6c0,2.8,1.1,5.5,3,7.6c2.1,2,5,3.1,8,2.9
	c0.8,0,1.5-0.7,1.5-1.5s-0.7-1.5-1.5-1.5c-2.1,0.1-4.2-0.6-5.8-2.1c-1.3-1.5-2.1-3.4-2.2-5.4c0-5-4.1-9.1-9.1-9.1s-9.1,4.1-9.1,9.1
	l0,0c0,0-0.5,7.5-5.2,7.5c-0.8,0-1.5,0.7-1.5,1.5S35.2,110.4,36,110.4L36,110.4z"/>
<path class="st7" d="M43.3,108.9H21.5c-3.4,0-6.1,2.7-6.1,6.1v5.4c0,0.6,0.4,1,1,1h99.2c0.6,0,1-0.4,1-1V115c0-3.4-2.7-6.1-6.1-6.1
	H54.9"/>
<path class="st8" d="M20.9,108.9c-0.4,0.8-0.6,1.7-0.6,2.5v5.4c0,0.6,0.4,1,1,1h95.3v2.6c0,0.6-0.4,1-1,1H16.4c-0.6,0-1-0.4-1-1V115
	C15.4,111.8,17.8,109.2,20.9,108.9z"/>
<path class="st5" d="M16.4,122.9h99.2c1.4,0,2.5-1.1,2.5-2.5V115c0-4.2-3.4-7.6-7.6-7.6H54.9c-0.8,0-1.5,0.7-1.5,1.5
	s0.7,1.5,1.5,1.5h55.5c2.5,0,4.6,2.1,4.6,4.6v4.9H16.9V115c0-2.5,2.1-4.6,4.6-4.6h21.8c0.8,0,1.5-0.7,1.5-1.5s-0.7-1.5-1.5-1.5H21.5
	c-4.2,0-7.6,3.4-7.6,7.6v5.4C13.9,121.8,15,122.9,16.4,122.9z"/>
<circle class="st9" cx="40.9" cy="54.6" r="8.6"/>
<path class="st5" d="M40.9,64.7c5.6,0,10.1-4.4,10.1-10c0-5.6-4.4-10.1-10-10.1s-10.1,4.4-10.1,10c0,0,0,0,0,0
	C30.9,60.1,35.4,64.6,40.9,64.7z M40.9,47.6c3.9,0,7.1,3.1,7.1,7s-3.1,7.1-7,7.1c-3.9,0-7.1-3.1-7.1-7c0,0,0,0,0,0
	C33.9,50.7,37,47.6,40.9,47.6L40.9,47.6z"/>
<path class="st5" d="M40.5,56.1h0.7c0.8,0,1.5-0.7,1.5-1.5s-0.7-1.5-1.5-1.5h-0.7c-0.8,0-1.5,0.7-1.5,1.5S39.7,56.1,40.5,56.1z"/>
<path class="st5" d="M50,100.6h0.7c0.8,0,1.5-0.7,1.5-1.5s-0.7-1.5-1.5-1.5H50c-0.8,0-1.5,0.7-1.5,1.5S49.1,100.6,50,100.6z"/>
<path class="st5" d="M60.1,106.3h8.4c0.8,0,1.5-0.7,1.5-1.5s-0.7-1.5-1.5-1.5h-8.4c-0.8,0-1.5,0.7-1.5,1.5S59.3,106.3,60.1,106.3z"
	/>
<path class="st1" d="M100.2,87.3H51.8c-0.6,0-1.1,0.5-1.1,1.1v0.1c0,0.6,0.5,1.1,1.1,1.1h48.4c0.6,0,1.1-0.5,1.1-1.1v-0.1
	C101.3,87.8,100.8,87.3,100.2,87.3z"/>
</svg>
