<?xml version="1.0" ?>
<!-- Generator: Adobe Illustrator 22.1.0, SVG Export Plug-In . SVG Version: 6.00 Build 0)  -->
<svg version="1.2" baseProfile="tiny" id="Layer_1" xmlns="http://www.w3.org/2000/svg" xmlns:xlink="http://www.w3.org/1999/xlink"
	 x="0px" y="0px" viewBox="0 0 512 512" xml:space="preserve">
<path fill="#5056ca" d="M255.5,11.1c-135,0-244.4,109.4-244.4,244.4c0,70.6,30,134.2,77.9,178.8c38.3-33.1,104.2-36,117.1-70.5
	c1.5-16.5,0.9-28,0.9-43.1c-7.5-3.9-21.4-28.9-23.7-50.1c-5.9-0.5-15.1-6.2-17.9-28.9c-1.5-12.2,4.4-19,7.9-21.1
	c-19.9-76.5-8.9-143.3,81.7-145c22.7,0,40.1,6.1,46.9,18c66.2,9.2,46.3,98.2,36.7,126.9c3.5,2.2,9.4,9,7.9,21.1
	c-2.7,22.6-12,28.4-17.9,28.9c-2.3,21.1-15.7,46.1-23.1,50.1c0,15.1-0.6,26.6,0.9,43.1c12.8,34.4,77.8,37.4,116.1,70
	c47.6-44.6,77.3-108,77.3-178.4C499.9,120.5,390.5,11.1,255.5,11.1z"/>
</svg>
