<?xml version="1.0" ?><!-- Generator: Adobe Illustrator 22.1.0, SVG Export Plug-In . SVG Version: 6.00 Build 0)  -->
<svg xmlns:xlink="http://www.w3.org/1999/xlink" baseProfile="tiny" id="Layer_1" version="1.2"
    viewBox="0 0 595.3 841.9" x="0px" xmlns="http://www.w3.org/2000/svg" y="0px"
    xml:space="preserve">
<g>
	<path d="M97.9,724.4c19.9,0,36-20.2,36-45.1s-16.2-45.1-36-45.1s-36,20.2-36,45.1S78,724.4,97.9,724.4z M97.9,641.6
		c15.8,0,28.7,16.9,28.7,37.8c0,20.8-12.9,37.8-28.7,37.8s-28.7-16.9-28.7-37.8C69.2,658.5,82,641.6,97.9,641.6z" />
</g>
    <path d="M155.5,617.6v106.5l30,21.9l1.2,0v28.7h5.4V809h-27.2c2.1-3.5,3.6-8.2,3.9-14.5l0-30.2l-0.2-0.5
	c-0.5-1.6-12.9-39.3-38.7-39.8l-1.7,0l-29.4,33.1l-34-35l-2.5,1.4c-1.4,0.8-34.7,20-34.7,49.3v19.4c-0.1,1.7-0.6,11.1,5.6,18.2
	c4.3,5,10.8,7.6,19.1,7.7l96.1,1.5l0.1,0l0.1,0c0,0,0.7,0,1.7-0.2h35.7h14.9V809v-34.3h8.8v-32.1l24.3-19.1v-106H155.5z
	 M145.7,812.2l-93.4-1.4c-6.2-0.1-10.8-1.9-13.7-5.2c-4.6-5.2-3.8-12.7-3.8-12.8l0-0.2v-19.8c0-20.8,21.4-36.7,28.6-41.4L99,767.8
	l32.3-36.4c18.2,2,28.6,30,30.1,34.1v28.7c-0.4,7.9-2.9,14.8-5.7,17.3 M226.6,720l-23.2,18.3l-15.7,0.4l-25-18.3v-17.5l28.3-1.1
	l9.1,8.8l26.4-0.8V720z M226.6,640.2h-50v8.2h50v7h-33.8v8.2h33.8v10.1h-50v9.2h50v19.7l-23.5,0.7l-9.2-8.9l-31.1,1.2v-70.7h63.8
	V640.2z" />
</svg>
