<?xml version="1.0" ?>
<svg height="512pt" viewBox="-17 0 512 512.00077" width="512pt"  fill="#5056ca" xmlns="http://www.w3.org/2000/svg">
    <path
        d="m26.078125 512h285.011719c19.65625.054688 38.515625-7.757812 52.378906-21.691406l92.691406-92.730469c28.648438-28.980469 28.511719-75.660156-.300781-104.472656-28.816406-28.816407-75.492187-28.949219-104.472656-.300781l-46.355469 46.351562-46.378906 46.378906c-28.714844 28.707032-28.949219 75.1875-.519532 104.175782.164063.195312.34375.382812.519532.570312 1.640625 1.632812 3.355468 3.167969 5.121094 4.625h-237.695313c-4.835937.125-8.867187-3.671875-9.027344-8.507812v-384h59.734375c14.136719 0 25.597656-11.460938 25.597656-25.597657v-59.734375h221.867188c4.710938 0 8.535156 3.820313 8.535156 8.535156v247.464844c0 4.714844 3.820313 8.535156 8.53125 8.535156 4.714844 0 8.535156-3.820312 8.535156-8.535156v-247.464844c0-14.140624-11.464843-25.601562-25.601562-25.601562h-230.398438c-.1875 0-.34375.09375-.523437.101562-.777344.050782-1.542969.207032-2.277344.460938-.265625.09375-.519531.164062-.777343.28125-.90625.402344-1.734376.960938-2.449219 1.648438l-85.332031 85.332031c-.6875.710937-1.246094 1.53125-1.648438 2.433593-.117188.265626-.1875.527344-.28125.800782-.253906.726562-.410156 1.484375-.460938 2.253906 0 .1875-.101562.339844-.101562.527344v392.558594c.15625 14.261718 11.816406 25.710937 26.078125 25.601562zm337.375-207.128906c22.265625-22.269532 58.371094-22.269532 80.640625 0 22.265625 22.265625 22.265625 58.371094 0 80.640625l-40.679688 40.667969c-.347656-.738282-.800781-1.421876-1.347656-2.03125l-78.953125-78.949219zm-109.425781 133.035156c-.042969-15.125 5.96875-29.640625 16.691406-40.304688l40.332031-40.335937 78.949219 78.949219c.605469.546875 1.289062 1 2.03125 1.347656l-40.671875 40.671875c-10.6875 10.691406-25.191406 16.699219-40.308594 16.699219-15.121093 0-29.621093-6.007813-40.3125-16.699219-10.738281-10.671875-16.753906-25.195313-16.710937-40.328125zm-168.710938-408.773438v47.667969c0 4.710938-3.820312 8.53125-8.53125 8.53125h-47.667968zm0 0" />
    <path
        d="m307.183594 170.667969c0-4.714844-3.820313-8.535157-8.535156-8.535157h-247.464844c-4.714844 0-8.535156 3.820313-8.535156 8.535157 0 4.710937 3.820312 8.53125 8.535156 8.53125h247.464844c4.714843 0 8.535156-3.820313 8.535156-8.53125zm0 0" />
    <path
        d="m179.183594 68.265625h102.398437c4.714844 0 8.535157-3.820313 8.535157-8.53125 0-4.714844-3.820313-8.535156-8.535157-8.535156h-102.398437c-4.714844 0-8.535156 3.820312-8.535156 8.535156 0 4.710937 3.820312 8.53125 8.535156 8.53125zm0 0" />
    <path
        d="m179.183594 102.398438h102.398437c4.714844 0 8.535157-3.820313 8.535157-8.53125 0-4.714844-3.820313-8.535157-8.535157-8.535157h-102.398437c-4.714844 0-8.535156 3.820313-8.535156 8.535157 0 4.710937 3.820312 8.53125 8.535156 8.53125zm0 0" />
    <path
        d="m179.183594 136.535156h102.398437c4.714844 0 8.535157-3.824218 8.535157-8.535156s-3.820313-8.535156-8.535157-8.535156h-102.398437c-4.714844 0-8.535156 3.824218-8.535156 8.535156s3.820312 8.535156 8.535156 8.535156zm0 0" />
    <path
        d="m247.449219 375.464844c0-4.710938-3.820313-8.53125-8.53125-8.53125h-187.734375c-4.714844 0-8.535156 3.820312-8.535156 8.53125v93.867187c0 4.714844 3.820312 8.535157 8.535156 8.535157 4.710937 0 8.53125-3.820313 8.53125-8.535157v-85.332031h179.203125c4.710937 0 8.53125-3.820312 8.53125-8.535156zm0 0" />
    <path
        d="m59.714844 213.332031c0 4.714844-3.820313 8.535157-8.53125 8.535157-4.714844 0-8.535156-3.820313-8.535156-8.535157 0-4.710937 3.820312-8.53125 8.535156-8.53125 4.710937 0 8.53125 3.820313 8.53125 8.53125zm0 0" />
    <path
        d="m238.917969 204.800781h-153.601563c-4.710937 0-8.53125 3.820313-8.53125 8.53125 0 4.714844 3.820313 8.535157 8.53125 8.535157h153.601563c4.710937 0 8.53125-3.820313 8.53125-8.535157 0-4.710937-3.820313-8.53125-8.53125-8.53125zm0 0" />
    <path
        d="m59.714844 247.464844c0 4.714844-3.820313 8.535156-8.53125 8.535156-4.714844 0-8.535156-3.820312-8.535156-8.535156 0-4.710938 3.820312-8.53125 8.535156-8.53125 4.710937 0 8.53125 3.820312 8.53125 8.53125zm0 0" />
    <path
        d="m238.917969 238.933594h-153.601563c-4.710937 0-8.53125 3.820312-8.53125 8.53125 0 4.714844 3.820313 8.535156 8.53125 8.535156h153.601563c4.710937 0 8.53125-3.820312 8.53125-8.535156 0-4.710938-3.820313-8.53125-8.53125-8.53125zm0 0" />
    <path
        d="m59.714844 281.601562c0 4.710938-3.820313 8.53125-8.53125 8.53125-4.714844 0-8.535156-3.820312-8.535156-8.53125 0-4.714843 3.820312-8.535156 8.535156-8.535156 4.710937 0 8.53125 3.820313 8.53125 8.535156zm0 0" />
    <path
        d="m238.917969 273.066406h-153.601563c-4.710937 0-8.53125 3.820313-8.53125 8.535156 0 4.710938 3.820313 8.53125 8.53125 8.53125h153.601563c4.710937 0 8.53125-3.820312 8.53125-8.53125 0-4.714843-3.820313-8.535156-8.53125-8.535156zm0 0" />
    <path
        d="m59.714844 315.734375c0 4.710937-3.820313 8.53125-8.53125 8.53125-4.714844 0-8.535156-3.820313-8.535156-8.53125 0-4.714844 3.820312-8.535156 8.535156-8.535156 4.710937 0 8.53125 3.820312 8.53125 8.535156zm0 0" />
    <path
        d="m238.917969 307.199219h-153.601563c-4.710937 0-8.53125 3.820312-8.53125 8.535156 0 4.710937 3.820313 8.53125 8.53125 8.53125h153.601563c4.710937 0 8.53125-3.820313 8.53125-8.53125 0-4.714844-3.820313-8.535156-8.53125-8.535156zm0 0" />
    <path
        d="m145.050781 469.332031c4.710938 0 8.53125-3.820312 8.53125-8.53125v-17.066406h17.066407c4.714843 0 8.535156-3.820313 8.535156-8.535156 0-4.710938-3.820313-8.53125-8.535156-8.53125h-17.066407v-17.066407c0-4.714843-3.820312-8.535156-8.53125-8.535156-4.714843 0-8.535156 3.820313-8.535156 8.535156v17.066407h-17.066406c-4.710938 0-8.53125 3.820312-8.53125 8.53125 0 4.714843 3.820312 8.535156 8.53125 8.535156h17.066406v17.066406c0 4.710938 3.820313 8.53125 8.535156 8.53125zm0 0" />
</svg>