<?xml version="1.0" ?><!-- Generator: Adobe Illustrator 22.1.0, SVG Export Plug-In . SVG Version: 6.00 Build 0)  -->
<svg xmlns:xlink="http://www.w3.org/1999/xlink" style="enable-background:new 0 0 512 512;" id="Layer_1"
    version="1.1" viewBox="0 0 512 512" x="0px" xmlns="http://www.w3.org/2000/svg"
    y="0px" xml:space="preserve">
<style type="text/css">
	.st0{fill:#5056ca;}
</style>
    <g>
	<path class="st0" d="M133.9,145.9h110c4.7,0,8.5-3.8,8.5-8.5c0-4.7-3.8-8.5-8.5-8.5h-110c-4.7,0-8.5,3.8-8.5,8.5
		C125.4,142.1,129.2,145.9,133.9,145.9L133.9,145.9z" />
        <path class="st0" d="M133.9,408.2h110c4.7,0,8.5-3.8,8.5-8.4c0-4.7-3.8-8.5-8.5-8.5h-110c-4.7,0-8.5,3.8-8.5,8.5
		C125.4,404.5,129.2,408.2,133.9,408.2L133.9,408.2z" />
        <path class="st0" d="M133.9,196.6h245.4c4.7,0,8.5-3.8,8.5-8.4c0-4.7-3.8-8.5-8.5-8.5H133.9c-4.7,0-8.5,3.8-8.5,8.5
		C125.4,192.9,129.2,196.6,133.9,196.6L133.9,196.6z" />
        <path class="st0" d="M133.9,298.2h245.4c4.7,0,8.5-3.8,8.5-8.5c0-4.7-3.8-8.5-8.5-8.5H133.9c-4.7,0-8.5,3.8-8.5,8.5
		C125.4,294.4,129.2,298.2,133.9,298.2L133.9,298.2z" />
        <path class="st0" d="M133.9,357.5h245.4c4.7,0,8.5-3.8,8.5-8.5c0-4.7-3.8-8.5-8.5-8.5H133.9c-4.7,0-8.5,3.8-8.5,8.5
		C125.4,353.7,129.2,357.5,133.9,357.5L133.9,357.5z" />
        <path class="st0" d="M133.9,247.4h118.5c4.7,0,8.5-3.8,8.5-8.5c0-4.7-3.8-8.4-8.5-8.4H133.9c-4.7,0-8.5,3.8-8.5,8.4
		C125.4,243.7,129.2,247.4,133.9,247.4L133.9,247.4z" />
        <path class="st0" d="M379.3,230.5h-59.2c-4.7,0-8.5,3.8-8.5,8.4c0,4.7,3.8,8.5,8.5,8.5h59.2c4.7,0,8.5-3.8,8.5-8.5
		C387.8,234.3,384,230.5,379.3,230.5L379.3,230.5z" />
        <path class="st0" d="M280.2,233c-1.6,1.6-2.4,3.7-2.4,6c0,2.2,0.9,4.4,2.4,6c1.6,1.6,3.7,2.4,6,2.4c2.3,0,4.4-0.9,6-2.4
		c1.5-1.6,2.4-3.7,2.4-6c0-2.3-0.8-4.4-2.4-6C289,229.8,283.4,229.7,280.2,233L280.2,233z" />
        <path class="st0" d="M353.9,19h-50.8v-8.5c0-4.7-3.8-8.5-8.5-8.5h-76.2c-4.7,0-8.5,3.8-8.5,8.5V19H49.3v490.8h414.7V19H353.9z
		 M286.2,19v25.4H227V19H286.2z M210,35.9v25.4h93.1V35.9h42.3v33.8H167.7V35.9H210z M150.8,78.2v8.5h211.6V61.3h59.2v406.2h-330
		V61.3h59.3L150.8,78.2L150.8,78.2z M447,492.8H66.2v-457h84.6v8.5H74.6v440.1h363.9V44.3h-76.2v-8.5H447L447,492.8L447,492.8z" />
</g>
</svg>
