<?xml version="1.0" ?><!-- Generator: Adobe Illustrator 22.1.0, SVG Export Plug-In . SVG Version: 6.00 Build 0)  -->
<svg xmlns:xlink="http://www.w3.org/1999/xlink" style="enable-background:new 0 0 512 512;" id="Layer_1"
    version="1.1" viewBox="0 0 512 512" x="0px" xmlns="http://www.w3.org/2000/svg"
    y="0px" xml:space="preserve">
<style type="text/css">
	.st0{fill:#5056ca;}
</style>
    <path class="st0" d="M435,420.9l-30.5-30.5c-0.2-0.2-0.4-0.2-0.4-0.4c5.9-9.2,9.4-20,9.4-31.8c0-31.8-25.9-57.7-57.7-57.7
	S298,326.3,298,358.1s25.9,57.7,57.7,57.7c11.6,0,22.6-3.5,31.8-9.4c0.2,0.2,0.2,0.4,0.4,0.4l30.5,30.5c4.6,4.6,12.1,4.6,16.7,0
	C439.6,433,439.6,425.5,435,420.9L435,420.9z M355.7,395.9c-20.9,0-37.8-16.9-37.8-37.8c0-20.9,16.9-37.8,37.8-37.8
	c20.9,0,37.8,16.9,37.8,37.8C393.5,379,376.6,395.9,355.7,395.9L355.7,395.9z" />
    <path class="st0" d="M289.9,41.2H164.8c-4.6,0-8.6,3.7-8.6,8.6c0,4.6,3.7,8.6,8.6,8.6h125.1c4.6,0,8.6-3.7,8.6-8.6
	C298.2,44.9,294.5,41.2,289.9,41.2z" />
    <path class="st0" d="M332.5,8.5c-4.6,0-8.6,3.7-8.6,8.6v66.3c0,4.6,3.7,8.6,8.6,8.6c4.8,0,8.6-3.7,8.6-8.6V17.1
	C340.8,12.2,337.1,8.5,332.5,8.5z" />
    <path class="st0" d="M123.8,8.5c-4.6,0-8.6,3.7-8.6,8.6v66.3c0,4.6,3.7,8.6,8.6,8.6c4.6,0,8.6-3.7,8.6-8.6V17.1
	C132.4,12.2,128.6,8.5,123.8,8.5z" />
    <path class="st0" d="M387.4,146.6H68.5c-4.6,0-8.6,3.7-8.6,8.6c0,4.6,3.7,8.6,8.6,8.6h318.9c4.8,0,8.6-3.7,8.6-8.6
	C395.9,150.5,392,146.6,387.4,146.6z" />
    <path class="st0" d="M309.9,212.6H68.5c-4.6,0-8.6,3.7-8.6,8.6s3.7,8.6,8.6,8.6h241.4c4.6,0,8.6-3.7,8.6-8.6
	S314.7,212.6,309.9,212.6z" />
    <path class="st0" d="M199.3,279.8H68.5c-4.6,0-8.6,3.7-8.6,8.6c0,4.8,3.7,8.6,8.6,8.6h130.8c4.6,0,8.6-3.7,8.6-8.6
	C207.8,283.5,203.9,279.8,199.3,279.8z" />
    <path class="st0" d="M451.7,264.9V50.2c-0.2-4.8-4-8.8-9-9h-77.5c-4.6,0-8.6,3.7-8.6,8.6c0,4.6,3.7,8.6,8.6,8.6h69.4v196
	c-18.9-9.9-39.7-14.9-61-14.9c-72.4,0-131.5,58.8-131.5,131.3c0,12.1,1.5,24.4,4.8,36H21.5V58.3h57.9c4.6,0,8.6-3.7,8.6-8.6
	s-3.7-8.6-8.6-8.6H13c-4.6,0-8.6,4.2-8.6,9v365.2c0,4.6,3.7,8.3,8.3,8.1c0,0,0,0,0.2,0h240.3c20.4,45.9,66.5,78.4,120.1,78.4
	c72.4,0,131.7-58.8,131.7-131.3C505.2,327.2,483.7,288.8,451.7,264.9z M373.5,485c-63.2,0-114.4-51.1-114.4-114.4
	s51.1-114.4,114.4-114.4s114.4,51.1,114.4,114.4S436.7,485,373.5,485z" />
</svg>
